<svg width="80" height="71" viewBox="0 0 80 71" fill="none" xmlns="http://www.w3.org/2000/svg">
<path d="M72.1397 7.92329C70.2827 6.04543 68.0778 4.55578 65.651 3.53945C63.2243 2.52311 60.6232 2 57.9964 2C55.3695 2 52.7684 2.52311 50.3417 3.53945C47.9149 4.55578 45.71 6.04543 43.853 7.92329L39.999 11.8187L36.1451 7.92329C32.394 4.13193 27.3065 2.00197 22.0017 2.00197C16.6969 2.00197 11.6094 4.13193 7.85837 7.92329C4.10732 11.7146 2 16.8568 2 22.2186C2 27.5804 4.10732 32.7226 7.85837 36.5139L39.999 69L72.1397 36.5139C73.9976 34.637 75.4714 32.4084 76.4769 29.9556C77.4825 27.5027 78 24.8737 78 22.2186C78 19.5636 77.4825 16.9345 76.4769 14.4817C75.4714 12.0288 73.9976 9.80026 72.1397 7.92329Z" stroke="#4A00C9" stroke-width="4" stroke-linecap="round" stroke-linejoin="round"/>
</svg>
