<svg width="52" height="69" viewBox="0 0 52 69" fill="none" xmlns="http://www.w3.org/2000/svg">
<path d="M33.1562 65.3392L32.2739 63.5444L33.1562 65.3392ZM17.9901 63.9969L15.9906 64.0396L17.9901 63.9969ZM34.0099 63.9969L36.0094 64.0395L34.0099 63.9969ZM14.5629 47.9477L12.7196 48.7237L14.5629 47.9477ZM11.6074 44.4816L12.7949 42.8723L11.6074 44.4816ZM40.3895 44.4814L39.2023 42.872L40.3895 44.4814ZM37.4331 47.9485L35.5896 47.1729L37.4331 47.9485ZM36.732 53.021C37.7599 52.6167 38.2655 51.4557 37.8612 50.4277C37.457 49.3998 36.2959 48.8942 35.268 49.2985L36.732 53.021ZM16.732 49.2985C15.7041 48.8942 14.543 49.3998 14.1388 50.4277C13.7345 51.4557 14.2401 52.6167 15.268 53.021L16.732 49.2985ZM20 41.3278C20 42.4323 20.8954 43.3278 22 43.3278C23.1046 43.3278 24 42.4323 24 41.3278H20ZM28 41.3278C28 42.4323 28.8954 43.3278 30 43.3278C31.1046 43.3278 32 42.4323 32 41.3278H28ZM26 2V4C38.1824 4 48 13.701 48 25.5967H50H52C52 11.4282 40.3273 0 26 0V2ZM50 25.5967H48C48 32.6506 44.5551 38.9232 39.2023 42.872L40.3895 44.4814L41.5768 46.0909C47.8938 41.4309 52 33.9912 52 25.5967H50ZM37.4331 47.9485L35.5896 47.1729C33.3543 52.4856 32.1333 58.1748 32.0103 63.9544L34.0099 63.9969L36.0094 64.0395C36.1216 58.7677 37.2353 53.5756 39.2765 48.7241L37.4331 47.9485ZM33.1562 65.3392L32.2739 63.5444C28.3259 65.4852 23.6741 65.4852 19.7261 63.5444L18.8438 65.3392L17.9614 67.1341C23.0223 69.622 28.9777 69.622 34.0386 67.1341L33.1562 65.3392ZM17.9901 63.9969L19.9897 63.9543C19.8664 58.1735 18.6426 52.4845 16.4063 47.1718L14.5629 47.9477L12.7196 48.7237C14.7621 53.5759 15.8781 58.7676 15.9906 64.0396L17.9901 63.9969ZM11.6074 44.4816L12.7949 42.8723C7.44344 38.9234 4 32.65 4 25.5967H2H0C0 33.9899 4.10412 41.4304 10.4199 46.0909L11.6074 44.4816ZM2 25.5967H4C4 13.701 13.8176 4 26 4V2V0C11.6727 0 0 11.4282 0 25.5967H2ZM18.8438 65.3392L19.7261 63.5444C19.8892 63.6246 19.9861 63.7867 19.9897 63.9543L17.9901 63.9969L15.9906 64.0396C16.0184 65.3438 16.7641 66.5455 17.9614 67.1341L18.8438 65.3392ZM34.0099 63.9969L32.0103 63.9544C32.0139 63.7867 32.1108 63.6246 32.2739 63.5444L33.1562 65.3392L34.0386 67.1341C35.2359 66.5455 35.9817 65.3438 36.0094 64.0395L34.0099 63.9969ZM14.5629 47.9477L16.4063 47.1718C16.0596 46.3481 15.7653 45.6094 15.2321 44.9335L13.6618 46.1722L12.0916 47.4108C12.2175 47.5705 12.3042 47.7369 12.7196 48.7237L14.5629 47.9477ZM11.6074 44.4816L10.4199 46.0909C11.6931 47.0304 11.9731 47.2607 12.0916 47.4108L13.6618 46.1722L15.2321 44.9335C14.6914 44.2481 13.8215 43.6298 12.7949 42.8723L11.6074 44.4816ZM40.3895 44.4814L39.2023 42.872C38.1752 43.6296 37.305 44.2479 36.764 44.9337L38.3343 46.1723L39.9045 47.411C40.0231 47.2607 40.3031 47.0305 41.5768 46.0909L40.3895 44.4814ZM37.4331 47.9485L39.2765 48.7241C39.6918 47.7372 39.7785 47.5708 39.9045 47.411L38.3343 46.1723L36.764 44.9337C36.2305 45.61 35.9362 46.349 35.5896 47.1729L37.4331 47.9485ZM36 51.1597L35.268 49.2985C29.3191 51.6381 22.6809 51.6381 16.732 49.2985L16 51.1597L15.268 53.021C22.1579 55.7306 29.8421 55.7306 36.732 53.021L36 51.1597ZM22 41.3278H24V29.5294H22H20V41.3278H22ZM22 29.5294H24V24.6135H22H20V29.5294H22ZM17 29.5294V31.5294H22V29.5294V27.5294H17V29.5294ZM22 29.5294V31.5294H30V29.5294V27.5294H22V29.5294ZM30 29.5294V31.5294H35V29.5294V27.5294H30V29.5294ZM30 24.6135H28V29.5294H30H32V24.6135H30ZM30 29.5294H28V41.3278H30H32V29.5294H30ZM35 19.6975V17.6975C31.1661 17.6975 28 20.7621 28 24.6135H30H32C32 23.0348 33.3111 21.6975 35 21.6975V19.6975ZM40 24.6135H42C42 20.7621 38.8339 17.6975 35 17.6975V19.6975V21.6975C36.6889 21.6975 38 23.0348 38 24.6135H40ZM35 29.5294V31.5294C38.8339 31.5294 42 28.4649 42 24.6135H40H38C38 26.1921 36.6889 27.5294 35 27.5294V29.5294ZM12 24.6135H10C10 28.4649 13.1661 31.5294 17 31.5294V29.5294V27.5294C15.3111 27.5294 14 26.1921 14 24.6135H12ZM17 19.6975V17.6975C13.1661 17.6975 10 20.7621 10 24.6135H12H14C14 23.0348 15.3111 21.6975 17 21.6975V19.6975ZM22 24.6135H24C24 20.7621 20.8339 17.6975 17 17.6975V19.6975V21.6975C18.6889 21.6975 20 23.0348 20 24.6135H22Z" fill="#4A00C9"/>
</svg>
