<svg width="80" height="73" viewBox="0 0 80 73" fill="none" xmlns="http://www.w3.org/2000/svg">
<path d="M57.7694 70.3944C57.5911 66.0926 55.4561 40.3335 29.885 40.3334C4.31377 40.3334 2.17881 66.0926 2.00052 70.3944C1.98644 70.7378 2.26101 71 2.60224 71H57.1677M57.7694 70.3944C57.7835 70.7378 57.5089 71 57.1677 71M57.7694 70.3944C57.6541 67.613 56.7206 55.8615 49.1635 47.9022C51.538 46.3838 54.3824 45.4443 57.7862 45.4443C73.8158 45.4444 77.4411 66.274 77.9943 70.3226C78.0442 70.6875 77.76 71 77.3944 71H57.1677M45.1036 17.3333C45.1036 25.8016 38.29 32.6666 29.8849 32.6666C21.4799 32.6666 14.6662 25.8016 14.6662 17.3333C14.6662 8.86495 21.4799 2 29.8849 2C38.29 2 45.1036 8.86495 45.1036 17.3333ZM47.0703 18.7667C48.7111 15.9034 51.4137 13.814 54.5834 12.9583C57.7532 12.1026 61.1305 12.5506 63.9725 14.2037C66.8144 15.8569 68.8882 18.5798 69.7375 21.7734C70.5868 24.967 70.1422 28.3698 68.5014 31.2331C66.8606 34.0965 64.1581 36.1858 60.9883 37.0416C57.8185 37.8973 54.4412 37.4493 51.5992 35.7962C48.7573 34.143 46.6836 31.4201 45.8342 28.2265C44.9849 25.0328 45.4295 21.6301 47.0703 18.7667Z" stroke="#4A00C9" stroke-width="4" stroke-linecap="round"/>
</svg>
