<svg width="314" height="74" viewBox="0 0 314 74" fill="none" xmlns="http://www.w3.org/2000/svg">
<g clip-path="url(#clip0_4018_1167)" filter="url(#filter0_d_4018_1167)">
<path d="M23.0354 12.25H286.965C292.921 12.25 297.75 17.0807 297.75 23.04V46.96C297.75 52.9193 292.921 57.75 286.965 57.75H23.0354C17.0789 57.75 12.25 52.9193 12.25 46.96V23.04C12.25 17.0807 17.0789 12.25 23.0354 12.25Z" fill="white" stroke="#E2E2E2" stroke-width="0.5"/>
<path d="M65.4084 39.752C62.8876 39.752 61.2656 37.9156 61.2656 35.0604V35.054C61.2656 32.1988 62.8813 30.375 65.4084 30.375C67.2943 30.375 68.7591 31.5196 69.1048 33.2365L69.1174 33.2994H67.9733L67.9292 33.161C67.5772 32.0604 66.6845 31.4189 65.4084 31.4189C63.598 31.4189 62.4287 32.8466 62.4287 35.054V35.0604C62.4287 37.2678 63.6042 38.708 65.4084 38.708C66.6783 38.708 67.5584 38.0791 67.9544 36.8842L67.9733 36.8276H69.1174L69.1048 36.8904C68.7591 38.6262 67.3069 39.752 65.4084 39.752ZM70.3432 39.601V30.5259H71.4371V34.1044H71.4622C71.8142 33.3686 72.5246 32.9346 73.4991 32.9346C74.8883 32.9346 75.8376 34.0101 75.8376 35.5949V39.601H74.7438V35.7836C74.7438 34.6012 74.1402 33.9031 73.1218 33.9031C72.1097 33.9031 71.4371 34.6704 71.4371 35.7836V39.601H70.3432ZM79.9364 39.7268C78.1196 39.7268 76.9062 38.4124 76.9062 36.3307V36.3181C76.9062 34.2364 78.1258 32.9346 79.93 32.9346C81.7342 32.9346 82.9601 34.2302 82.9601 36.3181V36.3307C82.9601 38.4187 81.7406 39.7268 79.9364 39.7268ZM79.9426 38.7583C81.0931 38.7583 81.8411 37.8653 81.8411 36.3307V36.3181C81.8411 34.7836 81.0867 33.9031 79.93 33.9031C78.7922 33.9031 78.0252 34.7899 78.0252 36.3181V36.3307C78.0252 37.8715 78.7859 38.7583 79.9426 38.7583ZM86.776 39.7268C84.9592 39.7268 83.7459 38.4124 83.7459 36.3307V36.3181C83.7459 34.2364 84.9655 32.9346 86.7697 32.9346C88.5738 32.9346 89.7997 34.2302 89.7997 36.3181V36.3307C89.7997 38.4187 88.5802 39.7268 86.776 39.7268ZM86.7822 38.7583C87.9327 38.7583 88.6807 37.8653 88.6807 36.3307V36.3181C88.6807 34.7836 87.9263 33.9031 86.7697 33.9031C85.6318 33.9031 84.8649 34.7899 84.8649 36.3181V36.3307C84.8649 37.8715 85.6256 38.7583 86.7822 38.7583ZM93.2258 39.7268C91.6856 39.7268 90.7553 38.9407 90.6232 37.7709L90.617 37.7143H91.7108L91.7233 37.7772C91.8554 38.4313 92.3395 38.8149 93.2321 38.8149C94.1185 38.8149 94.6465 38.4439 94.6465 37.8527V37.8464C94.6465 37.3747 94.4013 37.1106 93.6596 36.9282L92.6224 36.6766C91.3902 36.381 90.793 35.8087 90.793 34.8653V34.8591C90.793 33.7334 91.78 32.9346 93.1944 32.9346C94.6277 32.9346 95.5393 33.7711 95.6209 34.8653L95.6273 34.9471H94.5837L94.5774 34.9031C94.4894 34.2679 94.0054 33.8465 93.1944 33.8465C92.4023 33.8465 91.9119 34.2302 91.9119 34.8088V34.8151C91.9119 35.2616 92.2074 35.5698 92.9303 35.7459L93.9677 35.9974C95.2878 36.3181 95.7655 36.8401 95.7655 37.7709V37.7772C95.7655 38.9218 94.6843 39.7268 93.2258 39.7268ZM99.5939 39.7268C97.7143 39.7268 96.5828 38.4124 96.5828 36.3559V36.3496C96.5828 34.3245 97.7394 32.9346 99.5248 32.9346C101.31 32.9346 102.398 34.2616 102.398 36.2238V36.6263H97.6892C97.7143 37.9722 98.4561 38.7583 99.6191 38.7583C100.449 38.7583 101.034 38.3432 101.222 37.7835L101.241 37.7269H102.316L102.303 37.7897C102.09 38.8715 101.021 39.7268 99.5939 39.7268ZM99.5185 33.9031C98.5693 33.9031 97.8275 34.5509 97.708 35.771H101.285C101.178 34.5006 100.474 33.9031 99.5185 33.9031ZM106.315 39.601V30.5259H111.821V31.5448H107.446V34.6641H111.463V35.6703H107.446V39.601H106.315ZM112.946 39.601V33.0604H114.04V34.1673H114.065C114.286 33.4126 114.851 32.9346 115.587 32.9346C115.776 32.9346 115.938 32.9661 116.027 32.9787V34.0415C115.938 34.0101 115.706 33.9786 115.442 33.9786C114.593 33.9786 114.04 34.5697 114.04 35.5634V39.601H112.946ZM119.314 39.7268C117.498 39.7268 116.284 38.4124 116.284 36.3307V36.3181C116.284 34.2364 117.504 32.9346 119.308 32.9346C121.112 32.9346 122.338 34.2302 122.338 36.3181V36.3307C122.338 38.4187 121.119 39.7268 119.314 39.7268ZM119.321 38.7583C120.471 38.7583 121.22 37.8653 121.22 36.3307V36.3181C121.22 34.7836 120.465 33.9031 119.308 33.9031C118.17 33.9031 117.403 34.7899 117.403 36.3181V36.3307C117.403 37.8715 118.164 38.7583 119.321 38.7583ZM123.444 39.601V33.0604H124.539V34.0164H124.563C124.86 33.3686 125.513 32.9346 126.356 32.9346C127.248 32.9346 127.908 33.3937 128.191 34.1924H128.216C128.58 33.4063 129.347 32.9346 130.265 32.9346C131.561 32.9346 132.397 33.7837 132.397 35.0855V39.601H131.302V35.337C131.302 34.4377 130.806 33.9031 129.945 33.9031C129.077 33.9031 128.467 34.5509 128.467 35.4439V39.601H127.374V35.2176C127.374 34.4251 126.846 33.9031 126.035 33.9031C125.168 33.9031 124.539 34.5887 124.539 35.5006V39.601H123.444ZM138.475 39.601L136.005 30.5259H137.187L139.016 37.9784H139.041L141.097 30.5259H142.241L144.296 37.9784H144.322L146.151 30.5259H147.333L144.863 39.601H143.793L141.682 32.3309H141.656L139.544 39.601H138.475ZM148.942 31.9535C148.565 31.9535 148.257 31.6453 148.257 31.268C148.257 30.8844 148.565 30.5826 148.942 30.5826C149.326 30.5826 149.627 30.8844 149.627 31.268C149.627 31.6453 149.326 31.9535 148.942 31.9535ZM148.395 39.601V33.0604H149.49V39.601H148.395ZM153.437 39.7268C151.765 39.7268 150.658 38.3935 150.658 36.3307V36.3245C150.658 34.2616 151.778 32.9346 153.418 32.9346C154.342 32.9346 155.103 33.4001 155.512 34.1547H155.537V30.5259H156.63V39.601H155.537V38.4942H155.512C155.103 39.2551 154.374 39.7268 153.437 39.7268ZM153.651 38.7583C154.757 38.7583 155.543 37.7961 155.543 36.3307V36.3245C155.543 34.8653 154.751 33.9031 153.651 33.9031C152.494 33.9031 151.778 34.834 151.778 36.3245V36.3307C151.778 37.8338 152.494 38.7583 153.651 38.7583ZM160.799 39.7268C158.919 39.7268 157.787 38.4124 157.787 36.3559V36.3496C157.787 34.3245 158.944 32.9346 160.729 32.9346C162.515 32.9346 163.602 34.2616 163.602 36.2238V36.6263H158.894C158.919 37.9722 159.66 38.7583 160.824 38.7583C161.653 38.7583 162.238 38.3432 162.427 37.7835L162.446 37.7269H163.521L163.508 37.7897C163.294 38.8715 162.225 39.7268 160.799 39.7268ZM160.724 33.9031C159.774 33.9031 159.032 34.5509 158.913 35.771H162.489C162.383 34.5006 161.679 33.9031 160.724 33.9031ZM167.519 39.601V30.5259H170.919C172.667 30.5259 173.811 31.5951 173.811 33.2302V33.2428C173.811 34.5006 173.12 35.4754 171.989 35.8339L174.088 39.601H172.761L170.819 36.01H168.651V39.601H167.519ZM168.651 35.0101H170.819C171.982 35.0101 172.643 34.3811 172.643 33.2679V33.2553C172.643 32.1737 171.932 31.5322 170.768 31.5322H168.651V35.0101ZM176.854 39.7268C175.553 39.7268 174.679 38.9407 174.679 37.752V37.7395C174.679 36.6263 175.547 35.9282 177.049 35.8402L178.923 35.7333V35.1861C178.923 34.3874 178.4 33.9031 177.489 33.9031C176.647 33.9031 176.119 34.3056 175.993 34.8905L175.98 34.9471H174.924L174.931 34.8779C175.024 33.8026 175.962 32.9346 177.502 32.9346C179.048 32.9346 180.016 33.7711 180.016 35.0792V39.601H178.923V38.5382H178.897C178.513 39.2551 177.728 39.7268 176.854 39.7268ZM175.798 37.752C175.798 38.3809 176.314 38.7772 177.099 38.7772C178.13 38.7772 178.923 38.0665 178.923 37.1169V36.5823L177.175 36.6892C176.301 36.7395 175.798 37.1295 175.798 37.7395V37.752ZM181.406 39.601V33.0604H182.499V33.9912H182.525C182.876 33.3812 183.543 32.9346 184.536 32.9346C185.97 32.9346 186.799 33.8654 186.799 35.3559V39.601H185.706V35.5509C185.706 34.488 185.209 33.9031 184.203 33.9031C183.172 33.9031 182.499 34.6389 182.499 35.7521V39.601H181.406ZM190.96 41.928C189.346 41.928 188.327 41.167 188.113 40.1985L188.1 40.1419H189.2L189.226 40.1985C189.433 40.6702 190.056 40.9595 190.949 40.9595C192.099 40.9595 192.753 40.3242 192.753 39.3117V38.4753H192.727C192.338 39.1985 191.583 39.664 190.647 39.664C189 39.664 187.874 38.337 187.874 36.293V36.2867C187.874 34.2554 189.012 32.9346 190.672 32.9346C191.596 32.9346 192.325 33.4378 192.727 34.1673H192.753V33.0604H193.846V39.4187C193.846 40.9343 192.733 41.928 190.96 41.928ZM190.885 38.6954C191.998 38.6954 192.753 37.7458 192.753 36.293V36.2867C192.753 34.8465 191.992 33.9031 190.885 33.9031C189.723 33.9031 188.993 34.834 188.993 36.2867V36.293C188.993 37.7772 189.723 38.6954 190.885 38.6954ZM197.951 39.7268C196.072 39.7268 194.941 38.4124 194.941 36.3559V36.3496C194.941 34.3245 196.096 32.9346 197.882 32.9346C199.667 32.9346 200.755 34.2616 200.755 36.2238V36.6263H196.047C196.072 37.9722 196.814 38.7583 197.976 38.7583C198.807 38.7583 199.391 38.3432 199.58 37.7835L199.598 37.7269H200.673L200.661 37.7897C200.447 38.8715 199.379 39.7268 197.951 39.7268ZM197.876 33.9031C196.927 33.9031 196.185 34.5509 196.065 35.771H199.643C199.536 34.5006 198.831 33.9031 197.876 33.9031ZM208.507 39.752C205.929 39.752 204.32 37.947 204.32 35.0666V35.054C204.32 32.1799 205.935 30.375 208.507 30.375C211.072 30.375 212.681 32.1799 212.681 35.054V35.0666C212.681 37.947 211.077 39.752 208.507 39.752ZM208.507 38.708C210.374 38.708 211.524 37.2803 211.524 35.0666V35.054C211.524 32.8277 210.354 31.4189 208.507 31.4189C206.652 31.4189 205.477 32.8215 205.477 35.054V35.0666C205.477 37.2992 206.645 38.708 208.507 38.708ZM214.271 39.601V33.966H213.359V33.0604H214.271V32.2554C214.271 30.9976 214.856 30.4001 216.062 30.4001C216.308 30.4001 216.565 30.419 216.729 30.4442V31.3309C216.597 31.312 216.427 31.3058 216.257 31.3058C215.654 31.3058 215.352 31.614 215.352 32.2617V33.0604H216.698V33.966H215.365V39.601H214.271ZM220.639 39.601V30.5259H221.77V38.5822H226.146V39.601H220.639ZM229.132 39.7268C227.831 39.7268 226.957 38.9407 226.957 37.752V37.7395C226.957 36.6263 227.824 35.9282 229.327 35.8402L231.2 35.7333V35.1861C231.2 34.3874 230.679 33.9031 229.767 33.9031C228.925 33.9031 228.396 34.3056 228.271 34.8905L228.258 34.9471H227.202L227.208 34.8779C227.303 33.8026 228.24 32.9346 229.779 32.9346C231.326 32.9346 232.294 33.7711 232.294 35.0792V39.601H231.2V38.5382H231.175C230.792 39.2551 230.005 39.7268 229.132 39.7268ZM228.076 37.752C228.076 38.3809 228.591 38.7772 229.377 38.7772C230.408 38.7772 231.2 38.0665 231.2 37.1169V36.5823L229.453 36.6892C228.579 36.7395 228.076 37.1295 228.076 37.7395V37.752ZM233.683 39.601V33.0604H234.777V33.9912H234.802C235.154 33.3812 235.821 32.9346 236.814 32.9346C238.247 32.9346 239.077 33.8654 239.077 35.3559V39.601H237.983V35.5509C237.983 34.488 237.486 33.9031 236.48 33.9031C235.45 33.9031 234.777 34.6389 234.777 35.7521V39.601H233.683ZM243.239 41.928C241.623 41.928 240.605 41.167 240.391 40.1985L240.379 40.1419H241.479L241.503 40.1985C241.711 40.6702 242.334 40.9595 243.226 40.9595C244.376 40.9595 245.03 40.3242 245.03 39.3117V38.4753H245.005C244.615 39.1985 243.861 39.664 242.924 39.664C241.277 39.664 240.152 38.337 240.152 36.293V36.2867C240.152 34.2554 241.29 32.9346 242.95 32.9346C243.874 32.9346 244.603 33.4378 245.005 34.1673H245.03V33.0604H246.124V39.4187C246.124 40.9343 245.012 41.928 243.239 41.928ZM243.163 38.6954C244.276 38.6954 245.03 37.7458 245.03 36.293V36.2867C245.03 34.8465 244.27 33.9031 243.163 33.9031C242 33.9031 241.271 34.834 241.271 36.2867V36.293C241.271 37.7772 242 38.6954 243.163 38.6954ZM249.771 39.7268C248.337 39.7268 247.508 38.796 247.508 37.3055V33.0604H248.601V37.1106C248.601 38.1734 249.098 38.7583 250.104 38.7583C251.134 38.7583 251.807 38.0225 251.807 36.9093V33.0604H252.901V39.601H251.807V38.6703H251.782C251.43 39.2803 250.764 39.7268 249.771 39.7268ZM256.239 39.7268C254.938 39.7268 254.064 38.9407 254.064 37.752V37.7395C254.064 36.6263 254.932 35.9282 256.434 35.8402L258.307 35.7333V35.1861C258.307 34.3874 257.785 33.9031 256.874 33.9031C256.031 33.9031 255.504 34.3056 255.378 34.8905L255.366 34.9471H254.309L254.315 34.8779C254.41 33.8026 255.346 32.9346 256.887 32.9346C258.433 32.9346 259.401 33.7711 259.401 35.0792V39.601H258.307V38.5382H258.282C257.899 39.2551 257.113 39.7268 256.239 39.7268ZM255.183 37.752C255.183 38.3809 255.699 38.7772 256.484 38.7772C257.516 38.7772 258.307 38.0665 258.307 37.1169V36.5823L256.559 36.6892C255.686 36.7395 255.183 37.1295 255.183 37.7395V37.752ZM263.557 41.928C261.941 41.928 260.923 41.167 260.709 40.1985L260.697 40.1419H261.796L261.821 40.1985C262.029 40.6702 262.651 40.9595 263.544 40.9595C264.694 40.9595 265.348 40.3242 265.348 39.3117V38.4753H265.323C264.933 39.1985 264.179 39.664 263.242 39.664C261.595 39.664 260.47 38.337 260.47 36.293V36.2867C260.47 34.2554 261.608 32.9346 263.267 32.9346C264.191 32.9346 264.92 33.4378 265.323 34.1673H265.348V33.0604H266.442V39.4187C266.442 40.9343 265.33 41.928 263.557 41.928ZM263.481 38.6954C264.594 38.6954 265.348 37.7458 265.348 36.293V36.2867C265.348 34.8465 264.588 33.9031 263.481 33.9031C262.318 33.9031 261.589 34.834 261.589 36.2867V36.293C261.589 37.7772 262.318 38.6954 263.481 38.6954ZM270.547 39.7268C268.667 39.7268 267.536 38.4124 267.536 36.3559V36.3496C267.536 34.3245 268.693 32.9346 270.478 32.9346C272.264 32.9346 273.351 34.2616 273.351 36.2238V36.6263H268.642C268.667 37.9722 269.409 38.7583 270.572 38.7583C271.402 38.7583 271.987 38.3432 272.175 37.7835L272.194 37.7269H273.269L273.257 37.7897C273.042 38.8715 271.974 39.7268 270.547 39.7268ZM270.471 33.9031C269.522 33.9031 268.781 34.5509 268.661 35.771H272.238C272.131 34.5006 271.427 33.9031 270.471 33.9031ZM276.777 39.7268C275.237 39.7268 274.306 38.9407 274.174 37.7709L274.168 37.7143H275.261L275.274 37.7772C275.407 38.4313 275.891 38.8149 276.783 38.8149C277.67 38.8149 278.198 38.4439 278.198 37.8527V37.8464C278.198 37.3747 277.952 37.1106 277.211 36.9282L276.174 36.6766C274.941 36.381 274.344 35.8087 274.344 34.8653V34.8591C274.344 33.7334 275.331 32.9346 276.746 32.9346C278.179 32.9346 279.09 33.7711 279.172 34.8653L279.178 34.9471H278.134L278.129 34.9031C278.041 34.2679 277.556 33.8465 276.746 33.8465C275.953 33.8465 275.463 34.2302 275.463 34.8088V34.8151C275.463 35.2616 275.758 35.5698 276.482 35.7459L277.518 35.9974C278.839 36.3181 279.317 36.8401 279.317 37.7709V37.7772C279.317 38.9218 278.236 39.7268 276.777 39.7268Z" fill="black"/>
<path d="M42.5986 21.1992H27.7809C24.1438 21.1992 21.1953 24.1283 21.1953 27.7414V42.4614C21.1953 46.0746 24.1438 49.0036 27.7809 49.0036H42.5986C46.2358 49.0036 49.1842 46.0746 49.1842 42.4614V27.7414C49.1842 24.1283 46.2358 21.1992 42.5986 21.1992Z" fill="#E3E9FF"/>
<path d="M43.5478 41.0661L39.5245 33.0161C39.4768 32.9206 39.4034 32.8403 39.3126 32.7842C39.2218 32.7281 39.1172 32.6983 39.0104 32.6983C38.9038 32.6983 38.7991 32.7281 38.7083 32.7842C38.6175 32.8403 38.5441 32.9206 38.4964 33.0161L36.9366 36.1377C35.7141 36.0689 34.5377 35.6464 33.5506 34.9215C34.7088 33.6842 35.4105 32.0887 35.54 30.3984H37.2865C37.439 30.3984 37.5851 30.3379 37.6929 30.23C37.8008 30.1222 37.8613 29.976 37.8613 29.8234C37.8613 29.6709 37.8008 29.5247 37.6929 29.4169C37.5851 29.309 37.439 29.2484 37.2865 29.2484H33.2632V28.0984C33.2632 27.9459 33.2027 27.7997 33.0948 27.6919C32.9871 27.584 32.8409 27.5234 32.6885 27.5234C32.536 27.5234 32.3899 27.584 32.2821 27.6919C32.1742 27.7997 32.1137 27.9459 32.1137 28.0984V29.2484H28.0904C27.9379 29.2484 27.7918 29.309 27.684 29.4169C27.5761 29.5247 27.5156 29.6709 27.5156 29.8234C27.5156 29.976 27.5761 30.1222 27.684 30.23C27.7918 30.3379 27.9379 30.3984 28.0904 30.3984H34.3862C34.2581 31.8077 33.6602 33.1329 32.6885 34.1611C32.0829 33.5219 31.6179 32.7629 31.3234 31.933C31.2992 31.8606 31.2608 31.7937 31.2105 31.7363C31.1601 31.6789 31.0989 31.6321 31.0303 31.5986C30.9617 31.5652 30.8871 31.5457 30.811 31.5414C30.7347 31.537 30.6584 31.5479 30.5865 31.5734C30.5146 31.5989 30.4484 31.6384 30.3919 31.6898C30.3354 31.7411 30.2897 31.8032 30.2575 31.8724C30.2252 31.9416 30.2071 32.0165 30.204 32.0928C30.201 32.1692 30.2132 32.2452 30.24 32.3168C30.5829 33.287 31.123 34.1756 31.8263 34.9266C30.7435 35.7227 29.4342 36.1508 28.0904 36.1484C27.9379 36.1484 27.7918 36.209 27.684 36.3169C27.5761 36.4247 27.5156 36.5709 27.5156 36.7234C27.5156 36.876 27.5761 37.0222 27.684 37.13C27.7918 37.2379 27.9379 37.2984 28.0904 37.2984C29.7576 37.3003 31.3771 36.7414 32.6885 35.7114C33.7586 36.548 35.0361 37.0775 36.3842 37.2431L34.4731 41.0661C34.4393 41.1336 34.4192 41.2071 34.4137 41.2825C34.4084 41.3578 34.4179 41.4335 34.4418 41.5051C34.49 41.6499 34.5936 41.7695 34.7299 41.8377C34.8663 41.906 35.0241 41.9172 35.1687 41.869C35.3134 41.8209 35.433 41.7171 35.5012 41.5808L36.4919 39.5984H41.529L42.5197 41.5808C42.5675 41.6763 42.6409 41.7566 42.7317 41.8127C42.8226 41.8688 42.9273 41.8985 43.0341 41.8984C43.1321 41.8983 43.2284 41.8733 43.314 41.8255C43.3995 41.7777 43.4714 41.7089 43.5229 41.6256C43.5743 41.5421 43.6036 41.447 43.608 41.3491C43.6124 41.2511 43.5917 41.1538 43.5478 41.0661ZM37.0666 38.4484L39.0108 34.5593L40.9542 38.4484H37.0666Z" fill="black"/>
</g>
<defs>
<filter id="filter0_d_4018_1167" x="0" y="0" width="314" height="74" filterUnits="userSpaceOnUse" color-interpolation-filters="sRGB">
<feFlood flood-opacity="0" result="BackgroundImageFix"/>
<feColorMatrix in="SourceAlpha" type="matrix" values="0 0 0 0 0 0 0 0 0 0 0 0 0 0 0 0 0 0 127 0" result="hardAlpha"/>
<feOffset dx="2" dy="2"/>
<feGaussianBlur stdDeviation="7"/>
<feComposite in2="hardAlpha" operator="out"/>
<feColorMatrix type="matrix" values="0 0 0 0 0.856667 0 0 0 0 0.856667 0 0 0 0 0.856667 0 0 0 0.25 0"/>
<feBlend mode="normal" in2="BackgroundImageFix" result="effect1_dropShadow_4018_1167"/>
<feBlend mode="normal" in="SourceGraphic" in2="effect1_dropShadow_4018_1167" result="shape"/>
</filter>
<clipPath id="clip0_4018_1167">
<rect width="286" height="46" fill="white" transform="translate(12 12)"/>
</clipPath>
</defs>
</svg>
