<svg width="500" height="484" viewBox="0 0 500 484" fill="none" xmlns="http://www.w3.org/2000/svg">
<g clip-path="url(#clip0_4018_317)">
<rect width="500" height="484" rx="36" fill="url(#paint0_linear_4018_317)"/>
<path opacity="0.5" d="M562.525 34.1651C562.525 34.1651 465.528 -28.017 448.356 85.4342C436.74 162.18 443.26 220.955 423.242 257.086C406.417 287.453 364.922 285.5 343.971 275.592C314.763 261.777 284.695 208.531 254.755 198.399C192.168 177.223 139.04 346.634 196.294 444.999" stroke="url(#paint1_linear_4018_317)" stroke-width="0.5658" stroke-miterlimit="10"/>
<path opacity="0.5" d="M562.57 35.6114C562.57 35.6114 466.912 -25.4228 448.74 84.752C436.467 159.162 441.936 216.586 421.839 252.693C418.033 259.54 412.995 264.778 407.24 268.688C403.618 271.151 399.725 273.092 395.68 274.579C377.893 281.123 357.073 278.716 344.122 273.215C315.41 261.083 285.833 210.567 256.25 201.448C194.582 182.18 141.65 346.267 194.572 439.801" stroke="url(#paint2_linear_4018_317)" stroke-width="0.5658" stroke-miterlimit="10"/>
<path opacity="0.5" d="M562.621 37.0473C562.621 37.0473 468.305 -22.8469 449.13 84.0635C436.204 156.134 440.617 212.21 420.442 248.289C416.66 255.069 411.691 260.31 406.033 264.28C402.471 266.783 398.653 268.796 394.701 270.375C377.312 277.33 356.996 275.596 344.279 270.833C316.065 260.378 286.962 212.712 257.751 204.486C196.973 187.367 144.268 345.889 192.855 434.593" stroke="url(#paint3_linear_4018_317)" stroke-width="0.5658" stroke-miterlimit="10"/>
<path opacity="0.5" d="M562.664 38.4854C562.664 38.4854 469.693 -20.2769 449.512 83.3772C435.935 153.1 439.291 207.837 419.037 243.892C415.277 250.608 410.378 255.85 404.818 259.879C401.316 262.426 397.577 264.507 393.717 266.173C376.727 273.535 356.912 272.478 344.428 268.449C316.71 259.676 288.095 214.796 259.245 207.526C199.377 192.432 146.879 345.514 191.13 429.386" stroke="url(#paint4_linear_4018_317)" stroke-width="0.5658" stroke-miterlimit="10"/>
<path opacity="0.5" d="M562.709 39.9266C562.709 39.9266 471.09 -17.7116 449.895 82.69C435.673 150.062 437.967 203.463 417.634 239.494C413.898 246.147 409.065 251.388 403.605 255.473C400.162 258.06 396.502 260.213 392.734 261.97C376.145 269.743 356.837 269.312 344.578 266.068C317.373 258.869 289.23 216.883 260.74 210.566C201.786 197.492 149.488 345.137 189.407 424.179" stroke="url(#paint5_linear_4018_317)" stroke-width="0.5658" stroke-miterlimit="10"/>
<path opacity="0.5" d="M562.754 41.3678C562.754 41.3678 472.493 -15.1585 450.276 82.0068C435.412 147.019 436.637 199.089 416.229 235.1C412.514 241.689 407.751 246.93 402.389 251.075C399.005 253.706 395.424 255.926 391.745 257.772C375.555 265.95 356.751 266.185 344.725 263.686C318.017 258.142 290.364 218.966 262.232 213.609C204.195 202.553 152.097 344.765 187.682 418.976" stroke="url(#paint6_linear_4018_317)" stroke-width="0.5658" stroke-miterlimit="10"/>
<path opacity="0.5" d="M562.805 42.8044C562.805 42.8044 473.908 -12.6178 450.667 81.3189C435.165 143.971 435.32 194.714 414.833 230.702C411.143 237.222 406.447 242.468 401.183 246.673C397.856 249.343 394.356 251.635 390.77 253.572C374.981 262.161 356.676 263.058 344.883 261.309C318.67 257.418 291.511 221.052 263.734 216.652C206.618 207.604 154.713 344.392 185.963 413.776" stroke="url(#paint7_linear_4018_317)" stroke-width="0.5658" stroke-miterlimit="10"/>
<path opacity="0.5" d="M562.859 44.2507C562.859 44.2507 475.337 -10.0794 451.06 80.6368C434.927 140.922 434.005 190.345 413.439 226.305C409.774 232.762 405.146 238.007 399.979 242.272C396.712 244.986 393.288 247.346 389.796 249.375C374.406 258.371 356.603 259.933 345.043 258.929C319.323 256.697 292.661 223.132 265.239 219.697C209.047 212.654 157.335 344.021 184.25 408.575" stroke="url(#paint8_linear_4018_317)" stroke-width="0.5658" stroke-miterlimit="10"/>
<path opacity="0.5" d="M562.904 45.6888C562.904 45.6888 476.762 -7.55724 451.443 79.9505C434.687 137.86 432.68 185.972 412.036 221.908C408.392 228.301 403.835 233.546 398.766 237.871C395.558 240.625 392.213 243.056 388.811 245.173C373.822 254.579 356.514 256.807 345.193 256.548C319.967 255.974 293.803 225.208 266.734 222.737C211.47 217.691 159.947 343.641 182.527 403.368" stroke="url(#paint9_linear_4018_317)" stroke-width="0.5658" stroke-miterlimit="10"/>
<path opacity="0.5" d="M562.955 47.1314C562.955 47.1314 478.206 -5.03844 451.833 79.2687C434.461 134.802 431.31 181.54 410.639 217.515C407.009 223.833 402.53 229.09 397.558 233.47C394.411 236.268 391.144 238.767 387.834 240.976C373.243 250.789 356.437 253.682 345.349 254.172C320.614 255.261 294.952 227.288 268.235 225.786C213.903 222.729 162.562 343.275 180.81 398.171" stroke="url(#paint10_linear_4018_317)" stroke-width="0.5658" stroke-miterlimit="10"/>
<path opacity="0.5" d="M562.995 48.572C562.995 48.572 479.65 -2.52961 452.21 78.5809C434.23 131.731 429.977 177.157 409.229 213.117C405.623 219.366 401.207 224.616 396.338 229.068C393.245 231.898 390.062 234.477 386.844 236.772C372.655 246.996 356.345 250.555 345.493 251.787C321.249 254.537 296.09 229.351 269.723 228.821C216.324 227.745 165.167 342.894 179.08 392.959" stroke="url(#paint11_linear_4018_317)" stroke-width="0.5658" stroke-miterlimit="10"/>
<path opacity="0.5" d="M563.046 50.0099C563.046 50.0099 481.119 -0.0314829 452.599 77.8944C434.02 128.661 428.655 172.78 407.832 208.72C404.248 214.905 399.902 220.151 395.131 224.667C392.097 227.536 388.993 230.187 385.865 232.574C372.074 243.208 356.263 247.437 345.649 249.41C321.893 253.827 297.244 231.423 271.224 231.869C218.763 232.766 167.782 342.526 177.363 387.761" stroke="url(#paint12_linear_4018_317)" stroke-width="0.5658" stroke-miterlimit="10"/>
<path opacity="0.5" d="M563.098 51.4527C563.098 51.4527 482.602 2.46749 452.99 77.2127C433.823 125.592 427.336 168.407 406.436 204.323C402.877 210.441 398.596 215.691 393.925 220.266C390.951 223.18 387.92 225.886 384.889 228.377C371.483 239.378 356.185 244.316 345.807 247.031C322.539 253.113 298.4 233.483 272.726 234.91C221.203 237.772 170.402 342.151 175.648 382.555" stroke="url(#paint13_linear_4018_317)" stroke-width="0.5658" stroke-miterlimit="10"/>
<path opacity="0.5" d="M563.144 52.8932C563.144 52.8932 484.096 4.96024 453.375 76.5288C433.631 122.521 426.01 164.033 405.035 199.928C401.497 205.983 397.287 211.232 392.713 215.868C389.796 218.821 386.847 221.599 383.908 224.178C370.9 235.585 356.101 241.197 345.959 244.653C323.176 252.409 299.549 235.545 274.223 237.957C223.643 242.772 173.015 341.782 173.926 377.355" stroke="url(#paint14_linear_4018_317)" stroke-width="0.5658" stroke-miterlimit="10"/>
<path opacity="0.5" d="M563.191 54.3353C563.191 54.3353 485.61 7.45463 453.761 75.8426C433.453 119.451 424.685 159.659 403.634 195.531C400.121 201.522 395.979 206.771 391.503 211.463C388.645 214.46 385.774 217.306 382.925 219.976C370.316 231.794 356.013 238.08 346.109 242.269C323.814 251.699 300.7 237.593 275.718 240.993C226.082 247.753 175.624 341.403 172.203 372.145" stroke="url(#paint15_linear_4018_317)" stroke-width="0.5658" stroke-miterlimit="10"/>
<path opacity="0.5" d="M563.235 55.7729C563.235 55.7729 487.139 9.94847 454.141 75.1558C433.28 116.381 423.357 155.282 402.228 191.134C398.736 197.057 394.664 202.31 390.286 207.061C387.488 210.098 384.693 213.016 381.939 215.774C369.728 227.998 355.924 234.961 346.259 239.888C324.449 251 301.85 239.641 277.212 244.037C228.519 252.73 178.235 341.031 170.477 366.942" stroke="url(#paint16_linear_4018_317)" stroke-width="0.5658" stroke-miterlimit="10"/>
<path opacity="0.5" d="M563.292 57.2118C563.292 57.2118 488.701 12.4475 454.537 74.4702C433.136 113.32 422.045 150.909 400.837 186.738C397.369 192.597 393.365 197.85 389.085 202.661C386.344 205.742 383.63 208.727 380.968 211.577C369.156 224.212 355.85 231.849 346.421 237.508C325.099 250.303 303.012 241.681 278.719 247.078C230.97 257.692 180.857 340.656 168.766 361.741" stroke="url(#paint17_linear_4018_317)" stroke-width="0.5658" stroke-miterlimit="10"/>
<path opacity="0.5" d="M563.335 58.6528C563.335 58.6528 490.271 14.9647 454.919 73.7828C432.995 110.265 420.717 146.535 399.433 182.335C395.987 188.131 392.051 193.384 387.87 198.255C385.189 201.375 382.554 204.432 379.981 207.37C368.568 220.411 355.761 228.73 346.568 235.123C325.734 249.607 304.16 243.712 280.21 250.117C233.407 262.637 183.465 340.276 167.039 356.534" stroke="url(#paint18_linear_4018_317)" stroke-width="0.5658" stroke-miterlimit="10"/>
<path opacity="0.5" d="M563.382 60.0916C563.382 60.0916 491.862 17.4957 455.304 73.0972C432.868 107.219 419.397 142.163 398.031 177.939C394.61 183.667 390.741 188.924 386.659 193.854C384.037 197.019 381.48 200.144 379 203.173C367.985 216.625 355.677 225.621 346.723 232.743C326.379 248.918 305.314 245.741 281.71 253.159C235.85 267.575 186.081 339.901 165.32 351.328" stroke="url(#paint19_linear_4018_317)" stroke-width="0.5658" stroke-miterlimit="10"/>
<path opacity="0.5" d="M563.425 61.5292C563.425 61.5292 493.473 20.0452 455.687 72.4103C432.752 104.193 418.071 137.789 396.627 173.541C393.23 179.205 389.43 184.466 385.444 189.449C382.882 192.653 380.402 195.85 378.013 198.971C367.397 212.833 355.591 222.511 346.869 230.363C327.016 248.231 306.459 247.765 283.201 256.202C238.282 272.504 188.687 339.529 163.594 346.125" stroke="url(#paint20_linear_4018_317)" stroke-width="0.5658" stroke-miterlimit="10"/>
<path opacity="0.5" d="M563.477 62.9748C563.477 62.9748 495.11 22.6347 456.075 71.7275C432.654 101.186 416.754 133.419 395.228 169.148C391.856 174.748 388.123 180.009 384.235 185.051C381.733 188.3 379.331 191.564 377.035 194.772C366.817 209.046 355.512 219.405 347.024 227.982C327.665 247.548 307.611 249.78 284.7 259.246C240.72 277.417 191.303 339.157 161.875 340.923" stroke="url(#paint21_linear_4018_317)" stroke-width="0.5658" stroke-miterlimit="10"/>
<path opacity="0.5" d="M563.523 64.4115C563.523 64.4115 496.761 25.2513 456.459 71.0399C432.562 98.191 415.431 129.049 393.827 164.749C390.476 170.286 386.813 175.547 383.023 180.649C380.578 183.937 378.258 187.273 376.053 190.573C366.237 205.261 355.431 216.298 347.178 225.604C328.318 246.868 308.761 251.791 286.2 262.289C243.154 282.322 193.917 338.784 160.156 335.719" stroke="url(#paint22_linear_4018_317)" stroke-width="0.5658" stroke-miterlimit="10"/>
<path opacity="0.5" d="M563.574 65.8589C563.574 65.8589 498.431 27.9143 456.85 70.3628C432.483 95.2341 414.119 124.689 392.431 160.358C389.104 165.83 385.51 171.091 381.817 176.253C379.431 179.585 377.189 182.989 375.075 186.377C365.659 201.475 355.355 213.193 347.333 223.225C328.969 246.191 309.91 253.796 287.699 265.335C245.586 287.213 196.533 338.414 158.438 330.518" stroke="url(#paint23_linear_4018_317)" stroke-width="0.5658" stroke-miterlimit="10"/>
<path opacity="0.5" d="M563.615 67.2957C563.615 67.2957 500.105 30.6146 457.23 69.6752C432.402 92.2905 412.794 120.318 391.024 155.959C387.722 161.368 384.195 166.633 380.6 171.851C378.274 175.227 376.111 178.702 374.088 182.178C365.072 197.686 355.271 210.086 347.48 220.848C329.617 245.516 311.046 255.795 289.19 268.378C248.002 292.093 199.141 338.041 156.711 325.315" stroke="url(#paint24_linear_4018_317)" stroke-width="0.5658" stroke-miterlimit="10"/>
<path opacity="0.5" d="M563.672 68.7338C563.672 68.7338 501.799 33.368 457.625 68.9849C432.34 89.3722 411.484 115.945 389.633 151.558C386.355 156.903 382.899 162.168 379.399 167.446C377.133 170.861 375.05 174.413 373.118 177.976C364.524 193.919 355.203 206.98 347.645 218.463C330.286 244.833 312.198 257.783 290.7 271.419C250.43 296.959 201.765 337.666 155 320.109" stroke="url(#paint25_linear_4018_317)" stroke-width="0.5658" stroke-miterlimit="10"/>
<path opacity="0.5" d="M563.708 70.1773C563.708 70.1773 503.475 36.1787 457.997 68.304C432.251 86.4911 410.197 111.641 388.219 147.167C384.971 152.456 381.582 157.725 378.174 163.046C375.973 166.514 373.964 170.125 372.121 173.776C363.925 190.129 355.112 203.872 347.781 216.085C330.927 244.156 313.319 259.769 292.184 274.46C252.828 301.819 204.366 337.292 153.266 314.904" stroke="url(#paint26_linear_4018_317)" stroke-width="0.5658" stroke-miterlimit="10"/>
<path opacity="0.5" d="M563.765 71.6162C563.765 71.6162 505.166 39.0365 458.393 67.6185C432.186 83.6334 408.884 107.269 386.828 142.77C383.604 147.992 380.283 153.265 376.973 158.646C374.829 162.153 372.901 165.836 371.15 169.579C363.356 186.339 355.046 200.767 347.943 213.705C331.599 243.479 314.46 261.75 293.691 277.505C255.24 306.669 206.987 336.921 151.555 309.707" stroke="url(#paint27_linear_4018_317)" stroke-width="0.5658" stroke-miterlimit="10"/>
<path opacity="0.5" d="M563.806 73.0598C563.806 73.0598 506.834 41.9508 458.773 66.9336C432.096 80.8041 407.556 102.897 385.421 138.371C382.219 143.528 378.969 148.801 375.756 154.242C373.671 157.793 371.822 161.544 370.163 165.374C362.768 182.545 354.968 197.655 348.09 211.322C332.255 242.794 315.582 263.723 295.182 280.543C257.629 311.509 209.595 336.54 149.828 304.498" stroke="url(#paint28_linear_4018_317)" stroke-width="0.5658" stroke-miterlimit="10"/>
<path opacity="0.5" d="M563.855 74.5001C563.855 74.5001 508.498 44.9097 459.16 66.2495C432.004 77.9956 406.236 98.5264 384.022 133.976C380.845 139.07 377.662 144.343 374.547 149.843C372.522 153.434 370.752 157.257 369.182 161.179C362.185 178.756 354.892 194.552 348.245 208.944C332.919 242.114 316.707 265.694 296.681 283.59C260.015 316.349 212.211 336.17 148.109 299.298" stroke="url(#paint29_linear_4018_317)" stroke-width="0.5658" stroke-miterlimit="10"/>
<path opacity="0.5" d="M563.903 75.937C563.903 75.937 510.141 47.909 459.548 65.562C431.901 75.2076 404.916 94.148 382.623 129.578C379.468 134.608 376.355 139.881 373.338 145.441C371.372 149.076 369.678 152.966 368.203 156.98C361.607 174.968 354.838 191.461 348.399 206.567C333.622 241.466 317.824 267.669 298.18 286.633C262.392 321.182 214.825 335.798 146.391 294.094" stroke="url(#paint30_linear_4018_317)" stroke-width="0.5658" stroke-miterlimit="10"/>
<path opacity="0.5" d="M563.955 77.3792C563.955 77.3792 511.765 50.9535 459.936 64.8758C431.782 72.4408 403.596 89.7749 381.224 125.181C378.093 130.143 375.049 135.42 372.129 141.036C370.223 144.711 368.607 148.673 367.225 152.774C361.027 171.168 354.759 188.335 348.554 204.179C334.272 240.756 318.939 269.625 299.68 289.67C264.762 326.008 217.441 335.418 144.672 288.884" stroke="url(#paint31_linear_4018_317)" stroke-width="0.5658" stroke-miterlimit="10"/>
<path opacity="0.5" d="M564.004 78.8205C564.004 78.8205 431.831 14.1114 370.922 136.638C369.074 140.357 367.539 144.386 366.246 148.58C322.927 289.11 281.285 375.84 142.953 283.685" stroke="url(#paint32_linear_4018_317)" stroke-width="0.5658" stroke-miterlimit="10"/>
<path opacity="0.5" d="M562.913 80.8878C562.363 80.1823 541.775 69.9827 513.383 64.6537C485.861 59.4842 451.211 58.703 419.785 76.3639C400.431 87.1495 382.232 105.018 367.934 133.129C366.055 136.828 364.488 140.842 363.16 145.015C350.285 185.594 338.061 222.267 323.734 251.443C316.723 265.633 309.197 278.056 300.845 288.359C279.091 315.188 251.819 327.775 213.439 319.293C192.87 314.745 169.181 303.864 142.047 286.044" stroke="url(#paint33_linear_4018_317)" stroke-width="0.5658" stroke-miterlimit="10"/>
<path opacity="0.5" d="M561.822 82.9549C560.722 81.5479 540.186 71.2327 512.14 65.2541C484.352 59.3272 449.635 57.418 417.851 73.9431C398.212 84.1506 379.55 101.541 364.954 129.612C363.045 133.295 361.443 137.289 360.082 141.442C346.923 181.754 334.983 218.85 320.997 248.468C314.214 262.829 306.892 275.428 298.764 286.002C277.607 313.54 251.021 327.434 212.86 320.348C192.175 316.505 168.245 305.935 141.148 288.394" stroke="url(#paint34_linear_4018_317)" stroke-width="0.5658" stroke-miterlimit="10"/>
<path opacity="0.5" d="M560.737 85.0275C559.086 82.915 538.601 72.4683 510.9 65.8599C482.844 59.1638 448.043 56.0748 415.92 71.5276C395.983 81.1174 376.873 98.0729 361.973 126.105C360.035 129.772 358.4 133.742 357.004 137.879C343.563 177.92 331.875 215.414 318.258 245.499C311.687 260.015 304.581 272.809 296.684 283.655C276.123 311.902 250.212 327.119 212.282 321.412C191.475 318.283 167.309 308.016 140.25 290.753" stroke="url(#paint35_linear_4018_317)" stroke-width="0.5658" stroke-miterlimit="10"/>
<path opacity="0.5" d="M559.643 87.0962C557.445 84.2782 537.009 73.68 509.652 66.4618C481.325 58.9845 446.44 54.7197 413.981 69.1084C393.746 78.0764 374.186 94.5974 358.982 122.593C357.014 126.244 355.347 130.194 353.915 134.312C340.192 174.086 328.757 211.967 315.511 242.525C309.151 257.197 302.262 270.183 294.596 281.299C274.629 310.256 249.389 326.813 211.695 322.468C190.761 320.057 166.364 310.092 139.344 293.105" stroke="url(#paint36_linear_4018_317)" stroke-width="0.5658" stroke-miterlimit="10"/>
<path opacity="0.5" d="M558.553 89.165C555.804 85.6416 535.417 74.872 508.407 67.0639C479.806 58.7934 444.837 53.3647 412.044 66.6892C391.508 75.0354 371.46 91.0782 355.999 119.078C353.996 122.705 352.299 126.643 350.832 130.745C336.824 170.248 325.641 208.519 312.767 239.552C306.618 254.375 299.946 267.56 292.507 278.948C273.137 308.614 248.562 326.526 211.109 323.529C190.044 321.843 165.42 312.169 138.438 295.461" stroke="url(#paint37_linear_4018_317)" stroke-width="0.5658" stroke-miterlimit="10"/>
<path opacity="0.5" d="M557.465 91.2364C554.165 87.0114 533.825 76.0466 507.167 67.6685C478.289 58.5889 443.236 52.0044 410.113 64.2726C389.276 71.993 368.775 87.5973 353.016 115.569C350.983 119.181 349.248 123.095 347.751 127.18C333.405 166.372 322.528 205.066 310.027 236.582C304.09 251.552 297.635 264.936 290.427 276.595C271.653 306.97 247.734 326.262 210.53 324.588C189.333 323.635 164.484 314.244 137.539 297.815" stroke="url(#paint38_linear_4018_317)" stroke-width="0.5658" stroke-miterlimit="10"/>
<path opacity="0.5" d="M556.371 93.3009C552.522 88.3705 532.23 77.1983 505.919 68.2662C476.765 58.3656 441.625 50.6331 408.174 61.8491C387.033 68.9398 366.085 84.1137 350.028 112.05C347.962 115.645 346.194 119.539 344.665 123.605C330.029 162.522 319.407 201.602 307.283 233.6C301.555 248.722 295.319 262.302 288.339 274.235C270.161 305.316 246.895 326.006 209.947 325.64C188.611 325.428 163.542 316.313 136.633 300.167" stroke="url(#paint39_linear_4018_317)" stroke-width="0.5658" stroke-miterlimit="10"/>
<path opacity="0.5" d="M555.286 95.3718C550.886 89.736 530.643 78.3406 504.679 68.8704C475.246 58.1367 440.022 49.2604 406.242 59.4361C384.798 65.893 363.403 80.6364 347.047 108.545C344.952 112.12 343.152 115.998 341.587 120.044C326.663 158.686 316.291 198.153 304.544 230.633C299.022 245.903 293.009 259.685 286.258 271.886C268.677 303.676 246.056 325.782 209.368 326.702C187.894 327.24 162.606 318.392 135.734 302.525" stroke="url(#paint40_linear_4018_317)" stroke-width="0.5658" stroke-miterlimit="10"/>
<path opacity="0.5" d="M554.2 97.4388C549.25 91.0974 529.058 79.4589 503.439 69.4706C473.726 57.8839 438.418 47.8836 404.311 57.015C382.563 62.8383 360.721 77.1591 344.067 105.032C341.941 108.591 340.106 112.445 338.509 116.475C323.295 154.842 313.172 194.688 301.807 227.658C296.494 243.071 290.703 257.057 284.178 269.533C267.19 302.033 245.218 325.573 208.79 327.761C187.172 329.06 161.67 320.467 134.836 304.878" stroke="url(#paint41_linear_4018_317)" stroke-width="0.5658" stroke-miterlimit="10"/>
<path opacity="0.5" d="M553.112 99.5074C547.611 92.4645 527.469 80.5629 502.199 70.0724C472.207 57.6208 436.81 46.5005 402.38 54.5956C380.325 59.7811 358.038 73.6795 341.086 101.516C338.931 105.06 337.063 108.894 335.431 112.904C319.932 151 310.053 191.22 299.068 224.681C293.961 240.241 288.392 254.43 282.097 267.173C265.706 300.382 244.376 325.377 208.211 328.813C186.45 330.882 160.733 322.535 133.938 307.226" stroke="url(#paint42_linear_4018_317)" stroke-width="0.5658" stroke-miterlimit="10"/>
<path opacity="0.5" d="M552.019 101.581C545.968 93.8327 525.879 81.6562 500.951 70.6793C470.68 57.3509 435.196 45.1186 400.44 52.1814C378.08 56.7252 355.351 70.2051 338.098 98.0098C335.91 101.533 334.01 105.352 332.342 109.345C316.556 147.166 306.921 187.766 296.321 221.716C291.417 237.42 286.074 251.813 280.009 264.83C264.215 298.749 243.521 325.215 207.625 329.882C185.72 332.732 159.789 324.621 133.031 309.591" stroke="url(#paint43_linear_4018_317)" stroke-width="0.5658" stroke-miterlimit="10"/>
<path opacity="0.5" d="M550.928 103.651C544.327 95.1969 524.292 82.7293 499.706 71.2822C469.159 57.057 433.582 43.7285 398.504 49.763C375.837 53.6611 352.663 66.7304 335.112 94.4953C332.895 98.0028 330.962 101.801 329.259 105.775C313.188 143.325 303.792 184.295 293.577 218.74C288.879 234.587 283.758 249.183 277.921 262.476C262.723 297.1 242.669 325.061 207.039 330.94C184.987 334.579 158.845 326.695 132.125 311.947" stroke="url(#paint44_linear_4018_317)" stroke-width="0.5658" stroke-miterlimit="10"/>
<path opacity="0.5" d="M549.84 105.718C542.691 96.5632 522.711 83.7887 498.463 71.8832C467.642 56.7492 431.97 42.3287 396.57 47.3428C373.597 50.5952 349.981 63.2501 332.129 90.9831C329.882 94.4746 327.914 98.2531 326.178 102.207C309.823 139.486 300.665 180.822 290.838 215.77C286.34 231.757 281.447 246.564 275.84 260.123C261.239 295.457 241.825 324.928 206.46 332.003C184.262 336.443 157.908 328.778 131.227 314.306" stroke="url(#paint45_linear_4018_317)" stroke-width="0.5658" stroke-miterlimit="10"/>
<path opacity="0.5" d="M548.754 107.785C541.055 97.9238 521.132 84.8305 497.226 72.4826C466.134 56.4239 430.364 40.9272 394.641 44.921C371.359 47.5237 347.307 59.772 329.151 87.4691C326.874 90.9447 324.873 94.6993 323.103 98.6373C306.463 135.645 297.538 177.348 288.101 212.794C283.807 228.924 279.139 243.935 273.76 257.769C259.752 293.813 240.978 324.81 205.881 333.061C183.537 338.314 156.969 330.853 130.328 316.659" stroke="url(#paint46_linear_4018_317)" stroke-width="0.5658" stroke-miterlimit="10"/>
<path opacity="0.5" d="M547.659 109.854C539.409 99.2878 519.548 85.8637 495.976 73.0853C464.617 56.082 428.745 39.5251 392.7 42.5064C369.111 44.4555 344.617 56.3052 326.16 83.9585C323.853 87.4142 321.817 91.1528 320.014 95.0708C303.092 131.808 294.398 173.878 285.354 209.821C281.26 226.091 276.82 241.313 271.672 255.415C258.26 292.167 240.129 324.707 205.295 334.118C182.807 340.192 156.025 332.926 129.422 319.012" stroke="url(#paint47_linear_4018_317)" stroke-width="0.5658" stroke-miterlimit="10"/>
<path opacity="0.5" d="M546.576 111.925C537.776 100.653 517.98 86.8901 494.738 73.6892C463.117 55.7293 427.139 38.1162 390.771 40.0891C366.876 41.3845 341.943 52.8316 323.183 80.4491C320.846 83.8888 318.777 87.6075 316.936 91.5096C299.732 127.975 291.266 170.408 282.615 206.854C278.719 223.263 274.512 238.692 269.591 253.069C256.776 290.531 239.287 324.634 204.717 335.184C182.085 342.091 155.089 335.009 128.523 321.373" stroke="url(#paint48_linear_4018_317)" stroke-width="0.5658" stroke-miterlimit="10"/>
<path opacity="0.5" d="M545.488 113.993C536.137 102.019 516.409 87.8977 493.496 74.2903C461.614 55.3539 425.528 36.7004 388.837 37.669C364.633 38.3067 339.263 49.3592 320.199 76.9368C317.833 80.3606 315.732 84.0594 313.856 87.9415C296.37 124.14 288.125 166.936 279.876 203.88C276.181 220.429 272.201 236.069 267.508 250.713C255.289 288.884 238.446 324.561 204.138 336.239C181.365 343.988 154.152 337.08 127.625 323.724" stroke="url(#paint49_linear_4018_317)" stroke-width="0.5658" stroke-miterlimit="10"/>
<path opacity="0.5" d="M544.399 116.066C534.499 103.387 514.844 88.9025 492.256 74.8965C460.122 54.9716 423.919 35.2898 386.906 35.2539C362.395 35.23 336.586 45.888 317.219 73.4257C314.822 76.8336 312.686 80.5124 310.777 84.3746C293.009 120.302 284.988 163.46 277.136 200.907C273.637 217.595 269.89 233.443 265.428 248.361C253.805 287.239 237.613 324.51 203.559 337.3C180.649 345.901 153.216 339.157 126.727 326.084" stroke="url(#paint50_linear_4018_317)" stroke-width="0.5658" stroke-miterlimit="10"/>
<path opacity="0.5" d="M543.314 118.132C532.863 104.748 513.281 89.8892 491.016 75.4965C458.632 54.5632 422.31 33.8651 384.974 32.8328C360.158 32.1472 333.909 42.4146 314.238 69.9125C311.812 73.3044 309.643 76.9633 307.699 80.8056C289.652 116.466 281.847 159.979 274.4 197.932C271.098 214.76 267.582 230.814 263.347 246.004C252.319 285.591 236.782 324.468 202.981 338.354C179.935 347.821 152.28 341.228 125.828 328.434" stroke="url(#paint51_linear_4018_317)" stroke-width="0.5658" stroke-miterlimit="10"/>
<path opacity="0.5" d="M542.22 120.201C531.219 106.111 511.719 90.8697 489.768 76.0985C457.143 54.1448 420.696 32.4423 383.035 30.4135C357.912 29.0623 331.225 38.947 311.25 66.3971C308.794 69.773 306.592 73.4121 304.613 77.2344C286.287 112.628 278.696 156.5 271.653 194.954C268.546 211.922 265.263 228.188 261.259 243.649C250.827 283.945 235.949 324.44 202.395 339.411C179.215 349.754 151.335 343.301 124.922 330.786" stroke="url(#paint52_linear_4018_317)" stroke-width="0.5658" stroke-miterlimit="10"/>
<path opacity="0.5" d="M541.13 122.272C529.581 107.48 510.159 91.8441 488.523 76.7022C455.665 53.7082 419.083 31.0172 381.099 27.996C355.669 25.9752 328.546 35.4773 308.264 62.8875C305.778 66.2475 303.545 69.8666 301.528 73.669C282.922 108.8 275.542 153.026 268.909 191.983C265.994 209.09 262.947 225.563 259.171 241.295C249.335 282.3 235.121 324.426 201.808 340.469C178.499 351.693 150.391 345.379 124.016 333.139" stroke="url(#paint53_linear_4018_317)" stroke-width="0.5658" stroke-miterlimit="10"/>
<path opacity="0.5" d="M540.042 124.339C527.942 108.842 508.61 92.8074 487.283 77.3028C454.197 53.2526 417.477 29.5851 379.165 25.5793C353.432 22.889 325.869 32.0124 305.281 59.3787C302.765 62.7228 300.499 66.322 298.447 70.1085C279.562 104.972 272.391 149.553 266.169 189.016C263.45 206.263 260.636 222.947 257.09 238.95C247.851 280.665 234.304 324.429 201.23 341.536C177.796 353.653 149.455 347.463 123.117 335.501" stroke="url(#paint54_linear_4018_317)" stroke-width="0.5658" stroke-miterlimit="10"/>
<path opacity="0.5" d="M538.951 126.408C526.301 110.206 507.061 93.7649 486.037 77.9055C452.735 52.7831 415.868 28.1511 377.228 23.1609C351.189 19.7969 323.187 28.5457 302.296 55.8642C299.75 59.1923 297.448 62.7715 295.364 66.538C276.199 101.139 269.238 146.074 263.425 186.044C260.898 203.43 258.323 220.321 255.005 236.595C246.362 279.016 233.49 324.438 200.646 342.593C177.093 355.614 148.513 349.536 122.211 337.858" stroke="url(#paint55_linear_4018_317)" stroke-width="0.5658" stroke-miterlimit="10"/>
<path opacity="0.5" d="M537.858 128.479C524.658 111.576 505.513 94.716 484.79 78.5098C451.276 52.2993 414.254 26.7147 375.289 20.744C348.946 16.7064 320.505 25.0805 299.307 52.3551C296.732 55.6673 294.398 59.2266 292.278 62.9732C272.837 97.3107 266.076 142.597 260.681 183.073C258.344 200.594 256.007 217.697 252.916 234.246C244.867 277.376 232.681 324.456 200.06 343.656C176.39 357.586 147.569 351.615 121.305 340.216" stroke="url(#paint56_linear_4018_317)" stroke-width="0.5658" stroke-miterlimit="10"/>
<path opacity="0.5" d="M536.772 130.549C523.022 112.94 503.98 95.6619 483.55 79.113C449.835 51.7985 412.651 25.2771 373.358 18.3259C346.711 13.6108 317.869 21.678 296.327 48.8451C293.727 52.1493 291.355 55.6807 289.2 59.4074C269.482 93.4818 262.922 139.123 257.942 180.101C255.794 197.762 253.696 215.076 250.836 231.892C243.383 275.731 231.883 324.477 199.481 344.713C175.703 359.564 146.633 353.689 120.406 342.569" stroke="url(#paint57_linear_4018_317)" stroke-width="0.5658" stroke-miterlimit="10"/>
<path opacity="0.5" d="M535.679 132.616C521.378 114.301 502.442 96.6006 482.302 79.7128C448.395 51.2783 411.043 23.8323 371.418 15.9046C344.468 10.5118 315.184 18.2004 293.338 45.3275C290.709 48.6158 288.31 52.1352 286.114 55.834C266.161 89.6972 259.754 135.641 255.197 177.121C253.24 194.922 251.38 212.443 248.748 229.534C241.892 274.083 231.085 324.507 198.895 345.767C175.011 361.543 145.688 355.76 119.5 344.918" stroke="url(#paint58_linear_4018_317)" stroke-width="0.5658" stroke-miterlimit="10"/>
<path opacity="0.5" d="M534.593 134.685C519.742 115.665 500.917 97.5338 481.064 80.3152C446.976 50.7487 409.445 22.3899 369.49 13.4857C342.239 7.41137 312.507 14.7293 290.361 41.8166C287.701 45.0889 285.267 48.5884 283.036 52.2673C262.798 85.8634 256.595 132.166 252.458 174.148C250.69 192.092 249.069 209.821 246.667 227.179C240.408 272.438 230.304 324.54 198.316 346.824C174.332 363.532 144.752 357.833 118.602 347.271" stroke="url(#paint59_linear_4018_317)" stroke-width="0.5658" stroke-miterlimit="10"/>
<path opacity="0.5" d="M533.51 136.758C518.109 117.036 499.398 98.4705 479.827 80.9211C445.568 50.2027 407.847 20.9472 367.561 11.0704C340.009 4.31451 309.83 11.2577 287.383 38.3052C284.693 41.5616 282.226 45.0372 279.96 48.7041C259.44 82.0291 253.435 128.695 249.724 171.179C248.143 189.262 246.763 207.198 244.592 224.832C238.929 270.799 229.532 324.592 197.746 347.888C173.666 365.537 143.823 359.913 117.711 349.63" stroke="url(#paint60_linear_4018_317)" stroke-width="0.5658" stroke-miterlimit="10"/>
<path opacity="0.5" d="M532.42 138.827C516.471 118.4 497.879 99.3954 478.582 81.5231C444.163 49.6409 406.254 19.4048 365.624 8.65516C337.78 1.15393 307.148 7.79028 284.397 34.7979C281.678 38.0383 279.178 41.494 276.877 45.141C256.072 78.199 250.268 125.227 246.98 168.21C245.586 186.433 244.447 204.576 242.504 222.48C237.434 269.153 228.756 324.639 197.159 348.949C172.99 367.542 142.879 361.99 116.805 351.99" stroke="url(#paint61_linear_4018_317)" stroke-width="0.5658" stroke-miterlimit="10"/>
<path opacity="0.5" d="M531.332 140.892C514.832 119.759 496.365 100.317 477.339 82.1216C442.771 49.0596 404.648 17.9984 363.69 6.23242C335.542 -1.92248 304.466 4.31126 281.414 31.283C278.665 34.5035 276.13 37.9433 273.796 41.5703C252.71 74.3613 247.065 121.748 244.24 165.233C243.018 183.595 242.139 201.95 240.423 220.125C235.95 267.508 227.993 324.688 196.581 350.006C172.328 369.552 141.943 364.067 115.906 354.342" stroke="url(#paint62_linear_4018_317)" stroke-width="0.5658" stroke-miterlimit="10"/>
<path opacity="0.5" d="M530.238 142.961C513.189 121.123 494.851 101.238 476.094 82.7243C441.39 48.4706 403.043 16.5963 361.754 3.81389C333.302 -4.99468 301.781 0.84054 278.428 27.7684C250.581 59.8818 244.193 113.399 241.496 162.256C240.474 180.762 239.823 199.32 238.335 217.766C234.458 265.859 227.231 324.737 195.994 351.059C171.663 371.562 140.999 366.137 115 356.691" stroke="url(#paint63_linear_4018_317)" stroke-width="0.5658" stroke-miterlimit="10"/>
<g filter="url(#filter0_f_4018_317)">
<circle cx="332.5" cy="397.5" r="110.5" fill="#D9B2F9"/>
</g>
</g>
<defs>
<filter id="filter0_f_4018_317" x="166" y="231" width="333" height="333" filterUnits="userSpaceOnUse" color-interpolation-filters="sRGB">
<feFlood flood-opacity="0" result="BackgroundImageFix"/>
<feBlend mode="normal" in="SourceGraphic" in2="BackgroundImageFix" result="shape"/>
<feGaussianBlur stdDeviation="28" result="effect1_foregroundBlur_4018_317"/>
</filter>
<linearGradient id="paint0_linear_4018_317" x1="-91.5" y1="-71" x2="480" y2="474.5" gradientUnits="userSpaceOnUse">
<stop offset="0.0793023" stop-color="#E5C5FF"/>
<stop offset="1" stop-color="#9142D2"/>
</linearGradient>
<linearGradient id="paint1_linear_4018_317" x1="276.712" y1="103.844" x2="453.759" y2="212.106" gradientUnits="userSpaceOnUse">
<stop stop-color="#1BA4E5" stop-opacity="0.5"/>
<stop offset="1" stop-color="#B40FE7"/>
</linearGradient>
<linearGradient id="paint2_linear_4018_317" x1="279.065" y1="106.186" x2="454.032" y2="213.176" gradientUnits="userSpaceOnUse">
<stop stop-color="#1BA4E5" stop-opacity="0.5"/>
<stop offset="1" stop-color="#B40FE7"/>
</linearGradient>
<linearGradient id="paint3_linear_4018_317" x1="281.439" y1="108.543" x2="454.305" y2="214.248" gradientUnits="userSpaceOnUse">
<stop stop-color="#1BA4E5" stop-opacity="0.5"/>
<stop offset="1" stop-color="#B40FE7"/>
</linearGradient>
<linearGradient id="paint4_linear_4018_317" x1="283.781" y1="110.865" x2="454.583" y2="215.308" gradientUnits="userSpaceOnUse">
<stop stop-color="#1BA4E5" stop-opacity="0.5"/>
<stop offset="1" stop-color="#B40FE7"/>
</linearGradient>
<linearGradient id="paint5_linear_4018_317" x1="286.106" y1="113.166" x2="454.864" y2="216.359" gradientUnits="userSpaceOnUse">
<stop stop-color="#1BA4E5" stop-opacity="0.5"/>
<stop offset="1" stop-color="#B40FE7"/>
</linearGradient>
<linearGradient id="paint6_linear_4018_317" x1="288.414" y1="115.444" x2="455.153" y2="217.403" gradientUnits="userSpaceOnUse">
<stop stop-color="#1BA4E5" stop-opacity="0.5"/>
<stop offset="1" stop-color="#B40FE7"/>
</linearGradient>
<linearGradient id="paint7_linear_4018_317" x1="290.704" y1="117.687" x2="455.455" y2="218.431" gradientUnits="userSpaceOnUse">
<stop stop-color="#1BA4E5" stop-opacity="0.5"/>
<stop offset="1" stop-color="#B40FE7"/>
</linearGradient>
<linearGradient id="paint8_linear_4018_317" x1="292.967" y1="119.898" x2="455.769" y2="219.45" gradientUnits="userSpaceOnUse">
<stop stop-color="#1BA4E5" stop-opacity="0.5"/>
<stop offset="1" stop-color="#B40FE7"/>
</linearGradient>
<linearGradient id="paint9_linear_4018_317" x1="295.188" y1="122.058" x2="456.086" y2="220.446" gradientUnits="userSpaceOnUse">
<stop stop-color="#1BA4E5" stop-opacity="0.5"/>
<stop offset="1" stop-color="#B40FE7"/>
</linearGradient>
<linearGradient id="paint10_linear_4018_317" x1="297.369" y1="124.16" x2="456.421" y2="221.419" gradientUnits="userSpaceOnUse">
<stop stop-color="#1BA4E5" stop-opacity="0.5"/>
<stop offset="1" stop-color="#B40FE7"/>
</linearGradient>
<linearGradient id="paint11_linear_4018_317" x1="299.485" y1="126.188" x2="456.768" y2="222.364" gradientUnits="userSpaceOnUse">
<stop stop-color="#1BA4E5" stop-opacity="0.5"/>
<stop offset="1" stop-color="#B40FE7"/>
</linearGradient>
<linearGradient id="paint12_linear_4018_317" x1="301.534" y1="128.113" x2="457.145" y2="223.267" gradientUnits="userSpaceOnUse">
<stop stop-color="#1BA4E5" stop-opacity="0.5"/>
<stop offset="1" stop-color="#B40FE7"/>
</linearGradient>
<linearGradient id="paint13_linear_4018_317" x1="303.481" y1="129.901" x2="457.558" y2="224.117" gradientUnits="userSpaceOnUse">
<stop stop-color="#1BA4E5" stop-opacity="0.5"/>
<stop offset="1" stop-color="#B40FE7"/>
</linearGradient>
<linearGradient id="paint14_linear_4018_317" x1="305.279" y1="131.495" x2="458.014" y2="224.89" gradientUnits="userSpaceOnUse">
<stop stop-color="#1BA4E5" stop-opacity="0.5"/>
<stop offset="1" stop-color="#B40FE7"/>
</linearGradient>
<linearGradient id="paint15_linear_4018_317" x1="306.85" y1="132.784" x2="458.542" y2="225.542" gradientUnits="userSpaceOnUse">
<stop stop-color="#1BA4E5" stop-opacity="0.5"/>
<stop offset="1" stop-color="#B40FE7"/>
</linearGradient>
<linearGradient id="paint16_linear_4018_317" x1="308.027" y1="133.549" x2="459.196" y2="225.987" gradientUnits="userSpaceOnUse">
<stop stop-color="#1BA4E5" stop-opacity="0.5"/>
<stop offset="1" stop-color="#B40FE7"/>
</linearGradient>
<linearGradient id="paint17_linear_4018_317" x1="308.27" y1="133.066" x2="460.159" y2="225.944" gradientUnits="userSpaceOnUse">
<stop stop-color="#1BA4E5" stop-opacity="0.5"/>
<stop offset="1" stop-color="#B40FE7"/>
</linearGradient>
<linearGradient id="paint18_linear_4018_317" x1="305.93" y1="129.216" x2="461.907" y2="224.594" gradientUnits="userSpaceOnUse">
<stop stop-color="#1BA4E5" stop-opacity="0.5"/>
<stop offset="1" stop-color="#B40FE7"/>
</linearGradient>
<linearGradient id="paint19_linear_4018_317" x1="303.48" y1="125.217" x2="463.696" y2="223.187" gradientUnits="userSpaceOnUse">
<stop stop-color="#1BA4E5" stop-opacity="0.5"/>
<stop offset="1" stop-color="#B40FE7"/>
</linearGradient>
<linearGradient id="paint20_linear_4018_317" x1="301.028" y1="121.217" x2="465.481" y2="221.777" gradientUnits="userSpaceOnUse">
<stop stop-color="#1BA4E5" stop-opacity="0.5"/>
<stop offset="1" stop-color="#B40FE7"/>
</linearGradient>
<linearGradient id="paint21_linear_4018_317" x1="298.587" y1="117.218" x2="467.277" y2="220.37" gradientUnits="userSpaceOnUse">
<stop stop-color="#1BA4E5" stop-opacity="0.5"/>
<stop offset="1" stop-color="#B40FE7"/>
</linearGradient>
<linearGradient id="paint22_linear_4018_317" x1="296.138" y1="113.212" x2="469.067" y2="218.956" gradientUnits="userSpaceOnUse">
<stop stop-color="#1BA4E5" stop-opacity="0.5"/>
<stop offset="1" stop-color="#B40FE7"/>
</linearGradient>
<linearGradient id="paint23_linear_4018_317" x1="293.695" y1="109.211" x2="470.862" y2="217.547" gradientUnits="userSpaceOnUse">
<stop stop-color="#1BA4E5" stop-opacity="0.5"/>
<stop offset="1" stop-color="#B40FE7"/>
</linearGradient>
<linearGradient id="paint24_linear_4018_317" x1="291.243" y1="105.203" x2="472.651" y2="216.131" gradientUnits="userSpaceOnUse">
<stop stop-color="#1BA4E5" stop-opacity="0.5"/>
<stop offset="1" stop-color="#B40FE7"/>
</linearGradient>
<linearGradient id="paint25_linear_4018_317" x1="288.804" y1="101.194" x2="474.453" y2="214.716" gradientUnits="userSpaceOnUse">
<stop stop-color="#1BA4E5" stop-opacity="0.5"/>
<stop offset="1" stop-color="#B40FE7"/>
</linearGradient>
<linearGradient id="paint26_linear_4018_317" x1="286.347" y1="97.1858" x2="476.237" y2="213.301" gradientUnits="userSpaceOnUse">
<stop stop-color="#1BA4E5" stop-opacity="0.5"/>
<stop offset="1" stop-color="#B40FE7"/>
</linearGradient>
<linearGradient id="paint27_linear_4018_317" x1="283.907" y1="93.1764" x2="478.039" y2="211.886" gradientUnits="userSpaceOnUse">
<stop stop-color="#1BA4E5" stop-opacity="0.5"/>
<stop offset="1" stop-color="#B40FE7"/>
</linearGradient>
<linearGradient id="paint28_linear_4018_317" x1="281.452" y1="89.1671" x2="479.826" y2="210.471" gradientUnits="userSpaceOnUse">
<stop stop-color="#1BA4E5" stop-opacity="0.5"/>
<stop offset="1" stop-color="#B40FE7"/>
</linearGradient>
<linearGradient id="paint29_linear_4018_317" x1="279.007" y1="85.1582" x2="481.624" y2="209.056" gradientUnits="userSpaceOnUse">
<stop stop-color="#1BA4E5" stop-opacity="0.5"/>
<stop offset="1" stop-color="#B40FE7"/>
</linearGradient>
<linearGradient id="paint30_linear_4018_317" x1="276.559" y1="81.1456" x2="483.42" y2="207.638" gradientUnits="userSpaceOnUse">
<stop stop-color="#1BA4E5" stop-opacity="0.5"/>
<stop offset="1" stop-color="#B40FE7"/>
</linearGradient>
<linearGradient id="paint31_linear_4018_317" x1="274.114" y1="77.1341" x2="485.218" y2="206.222" gradientUnits="userSpaceOnUse">
<stop stop-color="#1BA4E5" stop-opacity="0.5"/>
<stop offset="1" stop-color="#B40FE7"/>
</linearGradient>
<linearGradient id="paint32_linear_4018_317" x1="271.668" y1="73.1254" x2="487.016" y2="204.808" gradientUnits="userSpaceOnUse">
<stop stop-color="#1BA4E5" stop-opacity="0.5"/>
<stop offset="1" stop-color="#B40FE7"/>
</linearGradient>
<linearGradient id="paint33_linear_4018_317" x1="270.774" y1="75.4639" x2="485.823" y2="206.963" gradientUnits="userSpaceOnUse">
<stop stop-color="#1BA4E5" stop-opacity="0.5"/>
<stop offset="1" stop-color="#B40FE7"/>
</linearGradient>
<linearGradient id="paint34_linear_4018_317" x1="269.875" y1="77.8065" x2="484.661" y2="209.145" gradientUnits="userSpaceOnUse">
<stop stop-color="#1BA4E5" stop-opacity="0.5"/>
<stop offset="1" stop-color="#B40FE7"/>
</linearGradient>
<linearGradient id="paint35_linear_4018_317" x1="268.984" y1="80.1506" x2="483.506" y2="211.328" gradientUnits="userSpaceOnUse">
<stop stop-color="#1BA4E5" stop-opacity="0.5"/>
<stop offset="1" stop-color="#B40FE7"/>
</linearGradient>
<linearGradient id="paint36_linear_4018_317" x1="268.085" y1="82.4947" x2="482.344" y2="213.511" gradientUnits="userSpaceOnUse">
<stop stop-color="#1BA4E5" stop-opacity="0.5"/>
<stop offset="1" stop-color="#B40FE7"/>
</linearGradient>
<linearGradient id="paint37_linear_4018_317" x1="267.189" y1="84.839" x2="481.184" y2="215.694" gradientUnits="userSpaceOnUse">
<stop stop-color="#1BA4E5" stop-opacity="0.5"/>
<stop offset="1" stop-color="#B40FE7"/>
</linearGradient>
<linearGradient id="paint38_linear_4018_317" x1="266.293" y1="87.1859" x2="480.024" y2="217.88" gradientUnits="userSpaceOnUse">
<stop stop-color="#1BA4E5" stop-opacity="0.5"/>
<stop offset="1" stop-color="#B40FE7"/>
</linearGradient>
<linearGradient id="paint39_linear_4018_317" x1="265.394" y1="89.5258" x2="478.862" y2="220.059" gradientUnits="userSpaceOnUse">
<stop stop-color="#1BA4E5" stop-opacity="0.5"/>
<stop offset="1" stop-color="#B40FE7"/>
</linearGradient>
<linearGradient id="paint40_linear_4018_317" x1="264.503" y1="91.8723" x2="477.708" y2="222.245" gradientUnits="userSpaceOnUse">
<stop stop-color="#1BA4E5" stop-opacity="0.5"/>
<stop offset="1" stop-color="#B40FE7"/>
</linearGradient>
<linearGradient id="paint41_linear_4018_317" x1="263.612" y1="94.2147" x2="476.553" y2="224.426" gradientUnits="userSpaceOnUse">
<stop stop-color="#1BA4E5" stop-opacity="0.5"/>
<stop offset="1" stop-color="#B40FE7"/>
</linearGradient>
<linearGradient id="paint42_linear_4018_317" x1="262.715" y1="96.5587" x2="475.393" y2="226.609" gradientUnits="userSpaceOnUse">
<stop stop-color="#1BA4E5" stop-opacity="0.5"/>
<stop offset="1" stop-color="#B40FE7"/>
</linearGradient>
<linearGradient id="paint43_linear_4018_317" x1="261.816" y1="98.904" x2="474.231" y2="228.793" gradientUnits="userSpaceOnUse">
<stop stop-color="#1BA4E5" stop-opacity="0.5"/>
<stop offset="1" stop-color="#B40FE7"/>
</linearGradient>
<linearGradient id="paint44_linear_4018_317" x1="260.92" y1="101.249" x2="473.072" y2="230.977" gradientUnits="userSpaceOnUse">
<stop stop-color="#1BA4E5" stop-opacity="0.5"/>
<stop offset="1" stop-color="#B40FE7"/>
</linearGradient>
<linearGradient id="paint45_linear_4018_317" x1="260.024" y1="103.592" x2="471.912" y2="233.159" gradientUnits="userSpaceOnUse">
<stop stop-color="#1BA4E5" stop-opacity="0.5"/>
<stop offset="1" stop-color="#B40FE7"/>
</linearGradient>
<linearGradient id="paint46_linear_4018_317" x1="259.133" y1="105.934" x2="470.758" y2="235.34" gradientUnits="userSpaceOnUse">
<stop stop-color="#1BA4E5" stop-opacity="0.5"/>
<stop offset="1" stop-color="#B40FE7"/>
</linearGradient>
<linearGradient id="paint47_linear_4018_317" x1="258.231" y1="108.279" x2="469.593" y2="237.524" gradientUnits="userSpaceOnUse">
<stop stop-color="#1BA4E5" stop-opacity="0.5"/>
<stop offset="1" stop-color="#B40FE7"/>
</linearGradient>
<linearGradient id="paint48_linear_4018_317" x1="257.343" y1="110.625" x2="468.441" y2="239.709" gradientUnits="userSpaceOnUse">
<stop stop-color="#1BA4E5" stop-opacity="0.5"/>
<stop offset="1" stop-color="#B40FE7"/>
</linearGradient>
<linearGradient id="paint49_linear_4018_317" x1="256.446" y1="112.968" x2="467.281" y2="241.891" gradientUnits="userSpaceOnUse">
<stop stop-color="#1BA4E5" stop-opacity="0.5"/>
<stop offset="1" stop-color="#B40FE7"/>
</linearGradient>
<linearGradient id="paint50_linear_4018_317" x1="255.552" y1="115.313" x2="466.124" y2="244.075" gradientUnits="userSpaceOnUse">
<stop stop-color="#1BA4E5" stop-opacity="0.5"/>
<stop offset="1" stop-color="#B40FE7"/>
</linearGradient>
<linearGradient id="paint51_linear_4018_317" x1="254.661" y1="117.655" x2="464.97" y2="246.256" gradientUnits="userSpaceOnUse">
<stop stop-color="#1BA4E5" stop-opacity="0.5"/>
<stop offset="1" stop-color="#B40FE7"/>
</linearGradient>
<linearGradient id="paint52_linear_4018_317" x1="253.762" y1="119.999" x2="463.807" y2="248.439" gradientUnits="userSpaceOnUse">
<stop stop-color="#1BA4E5" stop-opacity="0.5"/>
<stop offset="1" stop-color="#B40FE7"/>
</linearGradient>
<linearGradient id="paint53_linear_4018_317" x1="252.863" y1="122.345" x2="462.645" y2="250.624" gradientUnits="userSpaceOnUse">
<stop stop-color="#1BA4E5" stop-opacity="0.5"/>
<stop offset="1" stop-color="#B40FE7"/>
</linearGradient>
<linearGradient id="paint54_linear_4018_317" x1="251.97" y1="124.688" x2="461.488" y2="252.806" gradientUnits="userSpaceOnUse">
<stop stop-color="#1BA4E5" stop-opacity="0.5"/>
<stop offset="1" stop-color="#B40FE7"/>
</linearGradient>
<linearGradient id="paint55_linear_4018_317" x1="251.074" y1="127.032" x2="460.329" y2="254.989" gradientUnits="userSpaceOnUse">
<stop stop-color="#1BA4E5" stop-opacity="0.5"/>
<stop offset="1" stop-color="#B40FE7"/>
</linearGradient>
<linearGradient id="paint56_linear_4018_317" x1="250.175" y1="129.379" x2="459.166" y2="257.175" gradientUnits="userSpaceOnUse">
<stop stop-color="#1BA4E5" stop-opacity="0.5"/>
<stop offset="1" stop-color="#B40FE7"/>
</linearGradient>
<linearGradient id="paint57_linear_4018_317" x1="246.819" y1="128.467" x2="458.787" y2="258.083" gradientUnits="userSpaceOnUse">
<stop stop-color="#1BA4E5" stop-opacity="0.5"/>
<stop offset="1" stop-color="#B40FE7"/>
</linearGradient>
<linearGradient id="paint58_linear_4018_317" x1="242.725" y1="126.585" x2="458.635" y2="258.612" gradientUnits="userSpaceOnUse">
<stop stop-color="#1BA4E5" stop-opacity="0.5"/>
<stop offset="1" stop-color="#B40FE7"/>
</linearGradient>
<linearGradient id="paint59_linear_4018_317" x1="238.631" y1="124.697" x2="458.493" y2="259.14" gradientUnits="userSpaceOnUse">
<stop stop-color="#1BA4E5" stop-opacity="0.5"/>
<stop offset="1" stop-color="#B40FE7"/>
</linearGradient>
<linearGradient id="paint60_linear_4018_317" x1="234.532" y1="122.805" x2="458.353" y2="259.669" gradientUnits="userSpaceOnUse">
<stop stop-color="#1BA4E5" stop-opacity="0.5"/>
<stop offset="1" stop-color="#B40FE7"/>
</linearGradient>
<linearGradient id="paint61_linear_4018_317" x1="230.422" y1="120.902" x2="458.209" y2="260.19" gradientUnits="userSpaceOnUse">
<stop stop-color="#1BA4E5" stop-opacity="0.5"/>
<stop offset="1" stop-color="#B40FE7"/>
</linearGradient>
<linearGradient id="paint62_linear_4018_317" x1="226.308" y1="118.986" x2="458.07" y2="260.705" gradientUnits="userSpaceOnUse">
<stop stop-color="#1BA4E5" stop-opacity="0.5"/>
<stop offset="1" stop-color="#B40FE7"/>
</linearGradient>
<linearGradient id="paint63_linear_4018_317" x1="222.183" y1="117.067" x2="457.927" y2="261.222" gradientUnits="userSpaceOnUse">
<stop stop-color="#1BA4E5" stop-opacity="0.5"/>
<stop offset="1" stop-color="#B40FE7"/>
</linearGradient>
<clipPath id="clip0_4018_317">
<rect width="500" height="484" rx="36" fill="white"/>
</clipPath>
</defs>
</svg>
