<svg width="225" height="76" viewBox="0 0 225 76" fill="none" xmlns="http://www.w3.org/2000/svg">
<g clip-path="url(#clip0_4018_684)" filter="url(#filter0_d_4018_684)">
<path d="M198.233 12H22.7672C16.8206 12 12 17.474 12 24.2264V47.7736C12 54.526 16.8206 60 22.7672 60H198.233C204.179 60 209 54.526 209 47.7736V24.2264C209 17.474 204.179 12 198.233 12Z" fill="white"/>
<path d="M198.233 12H22.7672C16.8206 12 12 17.474 12 24.2264V47.7736C12 54.526 16.8206 60 22.7672 60H198.233C204.179 60 209 54.526 209 47.7736V24.2264C209 17.474 204.179 12 198.233 12Z" stroke="#E3E3E3"/>
<path d="M66.5625 40.444V31.6758H69.8731C71.5742 31.6758 72.6879 32.7088 72.6879 34.2887V34.3008C72.6879 35.5161 72.0148 36.4579 70.9133 36.8043L72.9572 40.444H71.666L69.7751 36.9744H67.664V40.444H66.5625ZM67.664 36.0083H69.7751C70.9072 36.0083 71.5497 35.4007 71.5497 34.3251V34.3129C71.5497 33.2679 70.8583 32.648 69.7262 32.648H67.664V36.0083ZM76.5308 40.5656C74.7011 40.5656 73.5997 39.2956 73.5997 37.3087V37.3025C73.5997 35.3459 74.7257 34.0031 76.4635 34.0031C78.2014 34.0031 79.26 35.2852 79.26 37.181V37.5699H74.6767C74.7011 38.8703 75.4233 39.6298 76.5553 39.6298C77.3631 39.6298 77.9321 39.2288 78.1157 38.688L78.1341 38.6333H79.1804L79.1683 38.694C78.9601 39.7392 77.9199 40.5656 76.5308 40.5656ZM76.4573 34.9388C75.5334 34.9388 74.8113 35.5647 74.695 36.7435H78.1769C78.0728 35.5161 77.3875 34.9388 76.4573 34.9388ZM82.1973 40.5656C80.9306 40.5656 80.08 39.806 80.08 38.6576V38.6455C80.08 37.5699 80.9245 36.8954 82.387 36.8104L84.2105 36.7071V36.1784C84.2105 35.4067 83.7026 34.9388 82.8153 34.9388C81.9953 34.9388 81.4813 35.3277 81.3589 35.8928L81.3467 35.9475H80.3186L80.3248 35.8807C80.4166 34.8416 81.3283 34.0031 82.8276 34.0031C84.3329 34.0031 85.2752 34.8112 85.2752 36.0752V40.444H84.2105V39.4171H84.186C83.8127 40.1098 83.0478 40.5656 82.1973 40.5656ZM81.1692 38.6576C81.1692 39.2652 81.671 39.648 82.4359 39.648C83.4394 39.648 84.2105 38.9614 84.2105 38.0439V37.5274L82.5093 37.6307C81.6588 37.6792 81.1692 38.056 81.1692 38.6455V38.6576ZM86.6827 40.444V31.6758H87.7474V40.444H86.6827ZM94.1543 40.444V32.6602H91.37V31.6758H98.04V32.6602H95.2557V40.444H94.1543ZM99.3312 33.0552C98.964 33.0552 98.6642 32.7574 98.6642 32.3928C98.6642 32.0222 98.964 31.7305 99.3312 31.7305C99.7045 31.7305 99.9982 32.0222 99.9982 32.3928C99.9982 32.7574 99.7045 33.0552 99.3312 33.0552ZM98.7989 40.444V34.1246H99.8636V40.444H98.7989ZM101.314 40.444V34.1246H102.379V35.0482H102.403C102.69 34.4224 103.327 34.0031 104.147 34.0031C105.016 34.0031 105.659 34.4466 105.933 35.2184H105.959C106.313 34.4588 107.06 34.0031 107.953 34.0031C109.214 34.0031 110.028 34.8234 110.028 36.0812V40.444H108.963V36.3242C108.963 35.4553 108.479 34.9388 107.641 34.9388C106.796 34.9388 106.203 35.5647 106.203 36.4275V40.444H105.139V36.2088C105.139 35.4432 104.625 34.9388 103.835 34.9388C102.99 34.9388 102.379 35.6012 102.379 36.4823V40.444H101.314ZM114.005 40.5656C112.175 40.5656 111.074 39.2956 111.074 37.3087V37.3025C111.074 35.3459 112.2 34.0031 113.938 34.0031C115.676 34.0031 116.734 35.2852 116.734 37.181V37.5699H112.151C112.175 38.8703 112.898 39.6298 114.029 39.6298C114.838 39.6298 115.406 39.2288 115.59 38.688L115.608 38.6333H116.655L116.642 38.694C116.435 39.7392 115.394 40.5656 114.005 40.5656ZM113.932 34.9388C113.008 34.9388 112.286 35.5647 112.169 36.7435H115.651C115.548 35.5161 114.862 34.9388 113.932 34.9388ZM122.78 40.444V32.6602H119.996V31.6758H126.666V32.6602H123.881V40.444H122.78ZM126.256 40.444V34.1246H127.321V35.1941H127.345C127.56 34.4648 128.11 34.0031 128.826 34.0031C129.01 34.0031 129.169 34.0335 129.254 34.0456V35.0725C129.169 35.0422 128.943 35.0118 128.685 35.0118C127.86 35.0118 127.321 35.5829 127.321 36.543V40.444H126.256ZM131.861 40.5656C130.594 40.5656 129.744 39.806 129.744 38.6576V38.6455C129.744 37.5699 130.588 36.8954 132.051 36.8104L133.874 36.7071V36.1784C133.874 35.4067 133.367 34.9388 132.479 34.9388C131.66 34.9388 131.146 35.3277 131.023 35.8928L131.011 35.9475H129.983L129.989 35.8807C130.08 34.8416 130.993 34.0031 132.491 34.0031C133.997 34.0031 134.939 34.8112 134.939 36.0752V40.444H133.874V39.4171H133.85C133.477 40.1098 132.712 40.5656 131.861 40.5656ZM130.833 38.6576C130.833 39.2652 131.335 39.648 132.1 39.648C133.103 39.648 133.874 38.9614 133.874 38.0439V37.5274L132.173 37.6307C131.323 37.6792 130.833 38.056 130.833 38.6455V38.6576ZM136.292 40.444V34.1246H137.356V35.0239H137.38C137.723 34.4345 138.372 34.0031 139.339 34.0031C140.734 34.0031 141.542 34.9024 141.542 36.3424V40.444H140.477V36.5309C140.477 35.504 139.993 34.9388 139.015 34.9388C138.011 34.9388 137.356 35.6497 137.356 36.7253V40.444H136.292ZM145.159 40.5656C143.659 40.5656 142.753 39.806 142.625 38.6758L142.619 38.6211H143.683L143.696 38.6819C143.825 39.3138 144.296 39.6845 145.165 39.6845C146.028 39.6845 146.542 39.326 146.542 38.7548V38.7488C146.542 38.293 146.303 38.0378 145.58 37.8616L144.571 37.6185C143.372 37.3329 142.79 36.78 142.79 35.8685V35.8624C142.79 34.7748 143.751 34.0031 145.128 34.0031C146.523 34.0031 147.41 34.8112 147.49 35.8685L147.496 35.9475H146.48L146.474 35.905C146.389 35.2912 145.917 34.8841 145.128 34.8841C144.356 34.8841 143.879 35.2548 143.879 35.8138V35.82C143.879 36.2513 144.167 36.5491 144.871 36.7192L145.88 36.9623C147.166 37.2721 147.631 37.7765 147.631 38.6758V38.6819C147.631 39.7878 146.578 40.5656 145.159 40.5656ZM148.793 40.444V31.6758H149.858V40.444H148.793ZM153.156 40.5656C151.889 40.5656 151.039 39.806 151.039 38.6576V38.6455C151.039 37.5699 151.884 36.8954 153.346 36.8104L155.169 36.7071V36.1784C155.169 35.4067 154.662 34.9388 153.774 34.9388C152.955 34.9388 152.441 35.3277 152.318 35.8928L152.306 35.9475H151.278L151.284 35.8807C151.375 34.8416 152.288 34.0031 153.786 34.0031C155.292 34.0031 156.234 34.8112 156.234 36.0752V40.444H155.169V39.4171H155.145C154.772 40.1098 154.007 40.5656 153.156 40.5656ZM152.128 38.6576C152.128 39.2652 152.63 39.648 153.395 39.648C154.398 39.648 155.169 38.9614 155.169 38.0439V37.5274L153.468 37.6307C152.618 37.6792 152.128 38.056 152.128 38.6455V38.6576ZM159.655 40.5656C158.486 40.5656 157.911 40.043 157.911 38.8338V34.9996H156.981V34.1246H157.911V32.4171H159.012V34.1246H160.224V34.9996H159.012V38.8277C159.012 39.5022 159.312 39.6905 159.881 39.6905C160.01 39.6905 160.132 39.6723 160.224 39.6663V40.5231C160.09 40.5413 159.863 40.5656 159.655 40.5656ZM161.968 33.0552C161.601 33.0552 161.301 32.7574 161.301 32.3928C161.301 32.0222 161.601 31.7305 161.968 31.7305C162.341 31.7305 162.635 32.0222 162.635 32.3928C162.635 32.7574 162.341 33.0552 161.968 33.0552ZM161.435 40.444V34.1246H162.501V40.444H161.435ZM166.588 40.5656C164.82 40.5656 163.638 39.2956 163.638 37.2843V37.2721C163.638 35.2608 164.826 34.0031 166.582 34.0031C168.338 34.0031 169.531 35.2548 169.531 37.2721V37.2843C169.531 39.3016 168.344 40.5656 166.588 40.5656ZM166.594 39.6298C167.714 39.6298 168.443 38.767 168.443 37.2843V37.2721C168.443 35.7896 167.708 34.9388 166.582 34.9388C165.474 34.9388 164.728 35.7956 164.728 37.2721V37.2843C164.728 38.773 165.468 39.6298 166.594 39.6298ZM170.608 40.444V34.1246H171.673V35.0239H171.697C172.04 34.4345 172.689 34.0031 173.656 34.0031C175.051 34.0031 175.859 34.9024 175.859 36.3424V40.444H174.794V36.5309C174.794 35.504 174.31 34.9388 173.331 34.9388C172.328 34.9388 171.673 35.6497 171.673 36.7253V40.444H170.608Z" fill="black"/>
<path d="M44.2273 20.8906H28.1144C24.1593 20.8906 20.9531 24.0744 20.9531 28.0017V44.0017C20.9531 47.9291 24.1593 51.1128 28.1144 51.1128H44.2273C48.1824 51.1128 51.3886 47.9291 51.3886 44.0017V28.0017C51.3886 24.0744 48.1824 20.8906 44.2273 20.8906Z" fill="#E3E9FF"/>
<path d="M35.2726 44H34.3774L35.2726 37.7778H32.1395C31.6203 37.7778 31.6293 37.4933 31.7993 37.1911C31.9694 36.8889 31.8441 37.12 31.862 37.0844C33.0168 35.0578 34.7534 32.0356 37.0629 28H37.958L37.0629 34.2222H40.196C40.6346 34.2222 40.6972 34.5156 40.6167 34.6756L40.554 34.8089C37.0271 40.9333 35.2726 44 35.2726 44Z" fill="black"/>
</g>
<defs>
<filter id="filter0_d_4018_684" x="0" y="0" width="225" height="76" filterUnits="userSpaceOnUse" color-interpolation-filters="sRGB">
<feFlood flood-opacity="0" result="BackgroundImageFix"/>
<feColorMatrix in="SourceAlpha" type="matrix" values="0 0 0 0 0 0 0 0 0 0 0 0 0 0 0 0 0 0 127 0" result="hardAlpha"/>
<feOffset dx="2" dy="2"/>
<feGaussianBlur stdDeviation="7"/>
<feComposite in2="hardAlpha" operator="out"/>
<feColorMatrix type="matrix" values="0 0 0 0 0.453333 0 0 0 0 0.453333 0 0 0 0 0.453333 0 0 0 0.14 0"/>
<feBlend mode="normal" in2="BackgroundImageFix" result="effect1_dropShadow_4018_684"/>
<feBlend mode="normal" in="SourceGraphic" in2="effect1_dropShadow_4018_684" result="shape"/>
</filter>
<clipPath id="clip0_4018_684">
<rect width="197" height="48" fill="white" transform="translate(12 12)"/>
</clipPath>
</defs>
</svg>
